# 
# Wavefront OBJ file
# Converted by the DEEP Exploration Deep Exploration 6.3 6.3.3.8068
# Right Hemisphere, LTD
# http://www.righthemisphere.com/
# 
mtllib 上部合金钢.mtl
# object é?2?o??e??
g ___2_o__e__
v -350.00000 6.46891 21.75000
v -331.00000 6.46891 21.75000
v -331.00000 7.75000 23.03109
v -331.00000 9.50000 23.50000
v -350.00000 9.50000 23.50000
v -350.00000 7.75000 23.03109
v -331.00000 6.46891 18.25000
v -350.00000 7.75000 16.96891
v -331.00000 7.75000 16.96891
v -350.00000 6.46891 18.25000
v -331.00000 6.00000 20.00000
v -350.00000 6.00000 20.00000
v -331.00000 9.50000 16.50000
v -350.00000 9.50000 16.50000
v 350.00000 6.46891 18.25000
v 331.00000 6.46891 18.25000
v 331.00000 7.75000 16.96891
v 331.00000 9.50000 16.50000
v 350.00000 9.50000 16.50000
v 350.00000 7.75000 16.96891
v 331.00000 6.46891 21.75000
v 350.00000 7.75000 23.03109
v 331.00000 7.75000 23.03109
v 350.00000 6.46891 21.75000
v 331.00000 6.00000 20.00000
v 350.00000 6.00000 20.00000
v 331.00000 9.50000 23.50000
v 350.00000 9.50000 23.50000
v -350.00000 0.00000 0.00000
v -350.00000 0.00000 40.00000
v -350.00000 19.00000 0.00000
v -350.00000 19.00000 40.00000
v -350.00000 11.25000 23.03108
v -350.00000 12.53110 21.75000
v -350.00000 12.99998 20.00000
v -350.00000 11.25000 16.96892
v -350.00000 12.53110 18.25000
v 350.00000 19.00000 40.00000
v 350.00000 0.00000 40.00000
v 350.00000 11.25000 16.96892
v 350.00000 19.00000 0.00000
v 350.00000 12.99998 20.00000
v 350.00000 0.00000 0.00000
v 350.00000 11.25000 23.03108
v 350.00000 12.53110 18.25000
v 350.00000 12.53110 21.75000
v 331.00000 13.00000 20.00000
v 331.00000 12.53109 18.25000
v 331.00000 11.25000 16.96891
v 331.00000 12.53109 21.75000
v 331.00000 11.25000 23.03109
v -331.00000 13.00000 20.00000
v -331.00000 12.53109 21.75000
v -331.00000 11.25000 23.03109
v -331.00000 12.53109 18.25000
v -331.00000 11.25000 16.96891
# 56 verticies
vt 0.66667 1.00000
vt 0.83333 0.00000
vt 0.66667 0.00000
vt 1.00000 0.00000
vt 0.83333 1.00000
vt 1.00000 1.00000
vt 0.33333 0.00000
vt 0.16667 0.00000
vt 0.16667 1.00000
vt 0.33333 1.00000
vt 0.50000 1.00000
vt 0.50000 0.00000
vt 0.00000 0.00000
vt 0.00000 1.00000
vt 1.00000 0.00000
vt 0.50000 0.31579
vt 0.42422 0.40789
vt 0.41250 0.50000
vt 0.58750 0.50000
vt 1.00000 1.00000
vt 0.00000 1.00000
vt 0.45625 0.65953
vt 0.42422 0.59211
vt 0.54375 0.34047
vt 0.57578 0.40789
vt 0.45625 0.34047
vt 0.50000 0.68421
vt 0.57578 0.59211
vt 0.54375 0.65953
vt 0.00000 1.00000
vt 0.50000 0.00000
vt 0.33333 1.00000
vt 0.16667 1.00000
vt 0.16667 0.00000
vt 0.00000 0.00000
vt 0.66667 0.00000
vt 0.66667 1.00000
vt 0.83333 0.00000
vt 0.83333 1.00000
vt 1.00000 1.00000
vt 0.06699 0.75000
vt 0.75000 0.06699
vt 0.93301 0.25000
vt 0.93301 0.75000
vt 0.50000 1.00000
vt 1.00000 0.50000
vt 0.75000 0.93301
vt 0.25000 0.93301
vt 0.00000 0.50000
vt 0.06699 0.25000
vt 0.25000 0.06699
# 51 texture verticies
vn 0.00000 0.86601 -0.50003
vn 0.00000 0.49998 -0.86604
vn -0.00000 -0.00003 -1.00000
vn 0.00000 0.49998 -0.86604
vn -0.00000 -0.00003 -1.00000
vn 0.00000 0.86601 0.50003
vn 0.00000 0.49998 0.86604
vn 0.00000 1.00000 -0.00000
vn 0.00000 1.00000 -0.00000
vn 0.00000 -0.00003 1.00000
vn 0.00000 0.86601 0.50003
vn 0.00000 0.49998 0.86604
vn 0.00000 -0.00003 1.00000
vn 0.00000 0.49998 0.86604
vn 0.00000 -0.00003 1.00000
vn 0.00000 0.86601 -0.50003
vn 0.00000 0.49998 -0.86604
vn 0.00000 1.00000 0.00000
vn 0.00000 1.00000 0.00000
vn 0.00000 -0.00003 -1.00000
vn -1.00000 -0.00000 -0.00000
vn 0.00000 0.00000 1.00000
vn 1.00000 0.00000 0.00000
vn -0.00000 -0.00000 -1.00000
vn 0.00000 1.00000 0.00000
vn -0.00000 -1.00000 -0.00000
vn 0.00000 -1.00000 0.00000
vn 0.00000 -1.00000 -0.00000
vn 0.00000 -0.86601 0.50003
vn 0.00000 -0.86601 0.50003
vn 0.00000 -0.49998 0.86604
vn 0.00000 0.00003 1.00000
vn 0.00000 0.00003 1.00000
vn 0.00000 -0.86601 -0.50003
vn 0.00000 -0.49998 -0.86604
vn 0.00000 0.00003 -1.00000
vn 0.00000 0.00003 -1.00000
vn -0.00000 -1.00000 -0.00000
vn 0.00000 -1.00000 0.00000
vn -0.00000 -0.86601 -0.50003
vn -0.00000 -0.86601 -0.50003
vn -0.00000 -0.49998 -0.86604
vn 0.00000 0.00003 -1.00000
vn 0.00000 0.00003 -1.00000
vn 0.00000 -0.86601 0.50003
vn 0.00000 -0.49998 0.86604
vn 0.00000 0.00003 1.00000
vn 0.00000 0.00003 1.00000
# 48 normals
usemtl Explorer_Default
f  1/1/1 3/2/2 2/3/1
f  4/4/3 6/5/4 5/6/5
f  7/7/6 9/8/7 8/9/7
f  10/10/6 12/11/8 11/12/9
f  13/13/10 14/14/10 9/8/7
f  8/9/7 9/8/7 14/14/10
f  11/12/9 7/7/6 10/10/6
f  7/7/6 8/9/7 10/10/6
f  12/11/8 1/1/1 2/3/1
f  11/12/9 12/11/8 2/3/1
f  6/5/4 4/4/3 3/2/2
f  1/1/1 6/5/4 3/2/2
f  15/1/11 17/2/12 16/3/11
f  18/4/13 20/5/14 19/6/15
f  21/7/16 23/8/17 22/9/17
f  24/10/16 26/11/18 25/12/19
f  27/13/20 28/14/20 23/8/17
f  22/9/17 23/8/17 28/14/20
f  25/12/19 21/7/16 24/10/16
f  21/7/16 22/9/17 24/10/16
f  26/11/18 15/1/11 16/3/11
f  25/12/19 26/11/18 16/3/11
f  20/5/14 18/4/13 17/2/12
f  15/1/11 20/5/14 17/2/12
f  29/15/21 30/13/21 12/16/21
f  6/17/21 30/13/21 5/18/21
f  29/15/21 14/19/21 31/20/21
f  32/21/21 34/22/21 33/23/21
f  10/24/21 8/25/21 29/15/21
f  29/15/21 8/25/21 14/19/21
f  29/15/21 12/16/21 10/24/21
f  30/13/21 6/17/21 1/26/21
f  30/13/21 1/26/21 12/16/21
f  32/21/21 5/18/21 30/13/21
f  35/27/21 32/21/21 31/20/21
f  32/21/21 33/23/21 5/18/21
f  32/21/21 35/27/21 34/22/21
f  36/28/21 37/29/21 31/20/21
f  31/20/21 37/29/21 35/27/21
f  14/19/21 36/28/21 31/20/21
f  30/4/22 38/21/22 32/20/22
f  30/4/22 39/13/22 38/21/22
f  40/23/23 19/18/23 41/21/23
f  22/25/23 39/15/23 24/24/23
f  38/20/23 42/27/23 41/21/23
f  41/21/23 19/18/23 43/13/23
f  44/28/23 38/20/23 28/19/23
f  41/21/23 42/27/23 45/22/23
f  41/21/23 45/22/23 40/23/23
f  38/20/23 44/28/23 46/29/23
f  38/20/23 46/29/23 42/27/23
f  38/20/23 39/15/23 28/19/23
f  26/16/23 39/15/23 43/13/23
f  39/15/23 22/25/23 28/19/23
f  39/15/23 26/16/23 24/24/23
f  20/17/23 15/26/23 43/13/23
f  43/13/23 15/26/23 26/16/23
f  19/18/23 20/17/23 43/13/23
f  43/4/24 31/30/24 41/20/24
f  43/4/24 29/13/24 31/30/24
f  41/30/25 32/4/25 38/20/25
f  32/4/25 41/30/25 31/13/25
f  30/4/26 43/30/26 39/20/26
f  30/4/26 29/13/26 43/30/26
f  42/11/27 47/31/28 45/32/29
f  48/7/30 40/33/31 45/32/29
f  45/32/29 47/31/28 48/7/30
f  19/14/32 40/33/31 49/34/31
f  48/7/30 49/34/31 40/33/31
f  18/35/33 19/14/32 49/34/31
f  50/36/34 47/31/28 42/11/27
f  50/36/34 46/37/34 51/38/35
f  46/37/34 50/36/34 42/11/27
f  44/39/35 27/4/36 51/38/35
f  51/38/35 46/37/34 44/39/35
f  44/39/35 28/40/37 27/4/36
f  51/41/23 16/42/23 17/43/23
f  49/44/23 47/45/23 18/46/23
f  49/44/23 48/47/23 47/45/23
f  47/45/23 50/48/23 18/46/23
f  25/12/23 27/49/23 23/50/23
f  27/49/23 25/12/23 16/42/23
f  21/51/23 25/12/23 23/50/23
f  16/42/23 51/41/23 27/49/23
f  18/46/23 50/48/23 17/43/23
f  50/48/23 51/41/23 17/43/23
f  35/11/38 52/31/39 34/32/40
f  53/7/41 33/33/42 34/32/40
f  34/32/40 52/31/39 53/7/41
f  5/14/43 33/33/42 54/34/42
f  53/7/41 54/34/42 33/33/42
f  4/35/44 5/14/43 54/34/42
f  55/36/45 52/31/39 35/11/38
f  55/36/45 37/37/45 56/38/46
f  37/37/45 55/36/45 35/11/38
f  36/39/46 13/4/47 56/38/46
f  56/38/46 37/37/45 36/39/46
f  36/39/46 14/40/48 13/4/47
f  3/41/21 55/42/21 56/43/21
f  9/44/21 11/45/21 13/46/21
f  9/44/21 7/47/21 11/45/21
f  11/45/21 2/48/21 13/46/21
f  52/12/21 4/49/21 54/50/21
f  4/49/21 52/12/21 55/42/21
f  53/51/21 52/12/21 54/50/21
f  55/42/21 3/41/21 4/49/21
f  13/46/21 2/48/21 56/43/21
f  2/48/21 3/41/21 56/43/21
