# 
# Wavefront OBJ file
# Converted by the DEEP Exploration Deep Exploration 6.3 6.3.3.8068
# Right Hemisphere, LTD
# http://www.righthemisphere.com/
# 
mtllib 下部分合金钢 带刀口.mtl
# object ??2?・?o??e?? ′?μ??ú
g __2____o__e____________
v 28.00000 400.00000 20.00000
v 28.00000 202.00000 20.00000
v -28.00000 202.00000 20.00000
v -28.00000 400.00000 20.00000
v -28.00000 200.00000 18.00000
v -28.00000 0.00000 20.00000
v -28.00000 0.00000 0.00000
v -28.00000 400.00000 0.00000
v -28.00000 198.00000 20.00000
v 28.00000 198.00000 20.00000
v 28.00000 0.00000 20.00000
v 28.00000 200.00000 18.00000
v 28.00000 0.00000 0.00000
v 28.00000 400.00000 0.00000
# 14 verticies
vt 0.00000 1.00000
vt 1.00000 0.00000
vt 0.00000 0.00000
vt 1.00000 1.00000
vt 0.10000 0.50000
vt 1.00000 0.00000
vt 0.00000 0.00000
vt 0.00000 1.00000
vt 0.00000 0.49500
vt 0.00000 0.50500
vt 0.00000 1.00000
vt 0.90000 0.50000
vt 1.00000 0.49500
vt 1.00000 0.50500
vt 0.00000 1.00000
vt 0.00000 1.00000
vt 0.00000 1.00000
vt 1.00000 1.00000
vt 1.00000 0.00000
vt 0.00000 1.00000
# 20 texture verticies
vn 0.00000 0.00000 1.00000
vn -1.00000 0.00000 -0.00000
vn 1.00000 0.00000 -0.00000
vn -0.00000 -0.00000 -1.00000
vn 0.00000 1.00000 0.00000
vn 0.00000 -1.00000 0.00000
vn 0.00000 -0.70711 0.70711
vn 0.00000 0.70711 0.70711
# 8 normals
usemtl Explorer_Default
f  1/1/1 3/2/1 2/3/1
f  1/1/1 4/4/1 3/2/1
f  5/5/2 7/6/2 6/7/2
f  8/4/2 5/5/2 4/8/2
f  9/9/2 5/5/2 6/7/2
f  4/8/2 5/5/2 3/10/2
f  7/6/2 5/5/2 8/4/2
f  10/11/1 9/4/1 6/2/1
f  6/2/1 11/3/1 10/11/1
f  11/6/3 12/12/3 10/13/3
f  12/12/3 11/6/3 13/3/3
f  12/12/3 14/11/3 1/4/3
f  14/11/3 12/12/3 13/3/3
f  1/4/3 2/14/3 12/12/3
f  13/2/4 8/15/4 14/4/4
f  13/2/4 7/3/4 8/15/4
f  8/2/5 1/16/5 14/4/5
f  8/2/5 4/3/5 1/16/5
f  11/16/6 7/2/6 13/4/6
f  7/2/6 11/16/6 6/3/6
f  12/17/7 2/18/7 3/19/7
f  3/19/7 5/3/7 12/17/7
f  10/20/8 12/18/8 5/19/8
f  5/19/8 9/3/8 10/20/8
