# 
# Wavefront OBJ file
# Converted by the DEEP Exploration Deep Exploration 6.3 6.3.3.8068
# Right Hemisphere, LTD
# http://www.righthemisphere.com/
# 
mtllib Ô²ÖùÍ°.mtl
# object ?2?¨´¨ª¡ã
g _2_______
v -2.16506 400.00000 1.25000
v -2.16506 392.50000 1.25000
v -1.25000 392.50000 2.16506
v 0.00000 392.50000 2.50000
v 0.00000 400.00000 2.50000
v -1.25000 400.00000 2.16506
v -2.16506 392.50000 -1.25000
v -1.25000 400.00000 -2.16506
v -1.25000 392.50000 -2.16506
v -2.16506 400.00000 -1.25000
v -2.50000 392.50000 -0.00000
v -2.50000 400.00000 0.00000
v 0.00000 392.50000 -2.50000
v 0.00000 400.00000 -2.50000
v -2.16506 0.00000 -1.25000
v -2.16506 7.50000 -1.25000
v -1.25000 7.50000 -2.16506
v 0.00000 7.50000 -2.50000
v 0.00000 -0.00000 -2.50000
v -1.25000 0.00000 -2.16506
v -2.16506 7.50000 1.25000
v -1.25000 0.00000 2.16506
v -1.25000 7.50000 2.16506
v -2.16506 0.00000 1.25000
v -2.50000 7.50000 0.00000
v -2.50000 0.00000 0.00000
v 0.00000 7.50000 2.50000
v 0.00000 -0.00000 2.50000
v 15.85720 0.00000 12.18808
v 16.95646 400.00000 10.60560
v 17.98333 0.00000 8.75214
v 4.01989 0.00000 -19.59185
v 7.87571 0.00000 -18.38405
v 6.07009 374.00000 -19.05660
v 14.47875 400.00000 13.79732
v 13.08385 0.00000 15.12656
v 9.77649 0.00000 17.44765
v 11.41008 400.00000 16.42590
v 6.07009 0.00000 19.05660
v 7.87571 400.00000 18.38405
v 6.07009 26.00000 19.05660
v 4.01989 400.00000 19.59185
v 3.07121 26.00000 19.76278
v 4.57976 26.00000 19.46832
v 1.54443 26.00000 19.94001
v 0.00000 400.00000 20.00000
v 0.00000 26.00000 19.99994
v 18.74208 400.00000 6.98100
v 19.76274 400.00000 3.07148
v 19.37546 0.00000 4.95897
v 19.97678 400.00000 -0.96341
v 19.97678 0.00000 0.96341
v 19.76274 0.00000 -3.07148
v 19.37546 400.00000 -4.95897
v 18.74208 0.00000 -6.98100
v 17.98333 400.00000 -8.75214
v 16.95646 0.00000 -10.60560
v 14.47875 0.00000 -13.79732
v 15.85720 400.00000 -12.18808
v 13.08385 400.00000 -15.12656
v 11.41008 0.00000 -16.42590
v 9.77649 400.00000 -17.44765
v 6.07009 400.00000 -19.05660
v 0.00000 0.00000 -20.00000
v 1.54443 374.00000 -19.94001
v 0.00000 374.00000 -19.99994
v 4.57976 374.00000 -19.46832
v 3.07121 374.00000 -19.76278
v -2.00714 26.00000 19.89890
v -3.98359 26.00000 19.59913
v -4.03017 400.00000 19.58974
v -14.50768 400.00000 13.76689
v -11.43593 400.00000 16.40791
v -12.98833 0.00000 15.20865
v -7.89500 400.00000 18.37577
v -5.92991 0.00000 19.10069
v -9.65722 0.00000 17.51394
v -19.35183 0.00000 5.05043
v -19.77389 400.00000 2.99886
v -18.76397 400.00000 6.92195
v -15.78658 0.00000 12.27941
v -17.93715 0.00000 8.84639
v -16.98422 400.00000 10.56107
v -19.35183 400.00000 -5.05043
v -18.76397 0.00000 -6.92195
v -17.93715 400.00000 -8.84639
v -19.97256 400.00000 -1.04727
v -19.97256 0.00000 1.04727
v -19.77389 0.00000 -2.99886
v -12.98833 400.00000 -15.20865
v -14.50768 0.00000 -13.76689
v -11.43593 0.00000 -16.40791
v -15.78658 400.00000 -12.27941
v -16.98422 0.00000 -10.56107
v -7.89500 0.00000 -18.37577
v -9.65722 400.00000 -17.51394
v -3.98359 374.00000 -19.59913
v -5.92991 374.00000 -19.10069
v -4.03017 0.00000 -19.58974
v -5.92991 400.00000 -19.10069
v -2.00714 374.00000 -19.89890
v -5.92991 26.00000 19.10069
v -5.92991 400.00000 -15.02190
v 2.16507 400.00000 -1.25000
v 1.25000 400.00000 2.16506
v 2.16507 400.00000 1.25000
v 2.49998 400.00000 -0.00000
v 1.25000 400.00000 -2.16506
v 6.07009 400.00000 -15.02190
v 1.25000 -0.00000 -2.16506
v 6.07009 0.00000 15.02190
v 2.49998 0.00000 0.00000
v 2.16507 -0.00000 1.25000
v -5.92991 0.00000 15.02190
v 2.16507 0.00000 -1.25000
v 1.25000 0.00000 2.16506
v 2.50000 7.50000 -0.00000
v 2.16506 7.50000 -1.25000
v 1.25000 7.50000 -2.16506
v 2.16506 7.50000 1.25000
v 1.25000 7.50000 2.16506
v 2.50000 392.50000 0.00000
v 2.16506 392.50000 1.25000
v 1.25000 392.50000 2.16506
v 2.16506 392.50000 -1.25000
v 1.25000 392.50000 -2.16506
v -5.92991 26.00000 15.02190
v 6.07009 26.00000 15.02190
v -5.92991 374.00000 -15.02190
v 6.07009 374.00000 -15.02190
# 130 verticies
vt 0.66667 1.00000
vt 0.83333 0.00000
vt 0.66667 0.00000
vt 1.00000 0.00000
vt 0.83333 1.00000
vt 1.00000 1.00000
vt 0.33333 0.00000
vt 0.16667 0.00000
vt 0.16667 1.00000
vt 0.33333 1.00000
vt 0.50000 1.00000
vt 0.50000 0.00000
vt 0.00000 0.00000
vt 0.00000 1.00000
vt 0.70859 1.00000
vt 0.64417 1.00000
vt 0.67791 0.00000
vt 0.06442 1.00000
vt 0.09816 0.06500
vt 0.12883 1.00000
vt 0.74233 0.00000
vt 0.77301 1.00000
vt 0.80675 0.00000
vt 0.83743 1.00000
vt 0.90184 1.00000
vt 0.87117 0.00000
vt 0.93558 0.00000
vt 0.90184 0.93500
vt 0.95092 0.93500
vt 0.92638 0.93500
vt 0.97546 0.93500
vt 1.00000 0.93500
vt 0.61350 0.00000
vt 0.57976 1.00000
vt 0.54908 0.00000
vt 0.51534 1.00000
vt 0.48466 0.00000
vt 0.45092 1.00000
vt 0.38650 1.00000
vt 0.42024 0.00000
vt 0.35583 0.00000
vt 0.32209 1.00000
vt 0.25767 1.00000
vt 0.29141 0.00000
vt 0.19325 1.00000
vt 0.22699 0.00000
vt 0.16257 0.00000
vt 0.09816 0.00000
vt 0.00000 0.06500
vt 0.02454 0.06500
vt 0.07362 0.06500
vt 0.04908 0.06500
vt 0.03194 0.93500
vt 0.06458 0.00000
vt 0.06388 0.93500
vt 0.25834 0.00000
vt 0.22499 1.00000
vt 0.19375 0.00000
vt 0.12917 0.00000
vt 0.16040 1.00000
vt 0.09582 1.00000
vt 0.41874 1.00000
vt 0.38751 0.00000
vt 0.45209 0.00000
vt 0.28957 1.00000
vt 0.32292 0.00000
vt 0.35416 1.00000
vt 0.58126 0.00000
vt 0.64584 0.00000
vt 0.61249 1.00000
vt 0.51668 0.00000
vt 0.54791 1.00000
vt 0.48332 1.00000
vt 0.77501 0.00000
vt 0.80625 1.00000
vt 0.74166 1.00000
vt 0.67708 1.00000
vt 0.71043 0.00000
vt 0.83960 0.00000
vt 0.87083 1.00000
vt 0.93612 0.06500
vt 0.93542 1.00000
vt 0.90418 0.06500
vt 0.90418 0.00000
vt 0.96806 0.06500
vt 1.00000 0.06500
vt 0.09582 0.93500
vt 0.00000 0.93500
vt 0.10431 0.35151
vt 0.00000 0.35151
vt 0.04058 0.25821
vt 0.48850 0.43737
vt 0.45653 0.44575
vt 0.35934 0.01554
vt 0.45653 0.55414
vt 0.26466 0.95010
vt 0.17679 0.89688
vt 0.09954 0.17483
vt 1.00000 0.49995
vt 0.98956 0.60057
vt 0.55244 0.49995
vt 0.17445 0.10478
vt 0.52047 0.44575
vt 0.66553 0.03025
vt 0.56520 0.00497
vt 0.46172 0.00000
vt 0.75860 0.07480
vt 0.84059 0.13680
vt 0.90813 0.21369
vt 0.54387 0.46866
vt 0.98951 0.39907
vt 0.95846 0.30232
vt 0.95867 0.69709
vt 0.54387 0.53124
vt 0.84137 0.86237
vt 0.52047 0.55414
vt 0.90859 0.78556
vt 0.56705 0.99464
vt 0.48850 0.56253
vt 0.66704 0.96909
vt 0.75974 0.92440
vt 0.36167 0.98495
vt 0.46386 1.00000
vt 0.10431 0.65189
vt 0.43313 0.53124
vt 0.42456 0.49995
vt 0.43313 0.46866
vt 0.04228 0.74467
vt 0.10164 0.82746
vt 0.00113 0.65189
vt 0.26225 0.05095
vt 0.45613 0.53124
vt 0.01044 0.60057
vt 0.04133 0.69709
vt 0.89569 0.65189
vt 0.89836 0.82746
vt 0.95772 0.74467
vt 0.51150 0.56253
vt 0.63833 0.98495
vt 0.54347 0.55414
vt 0.89569 0.35151
vt 0.90046 0.17483
vt 0.82555 0.10478
vt 0.82321 0.89688
vt 0.99887 0.65189
vt 0.47953 0.55414
vt 0.33296 0.96909
vt 0.53614 1.00000
vt 0.43295 0.99464
vt 0.24026 0.92440
vt 0.15863 0.86237
vt 0.09141 0.78556
vt 0.44756 0.49995
vt 0.00000 0.49995
vt 0.01049 0.39907
vt 0.09187 0.21369
vt 0.04154 0.30232
vt 0.45613 0.46866
vt 0.47953 0.44575
vt 0.33447 0.03025
vt 0.24140 0.07480
vt 0.15941 0.13680
vt 0.51150 0.43737
vt 0.43480 0.00497
vt 0.54347 0.44575
vt 0.64066 0.01554
vt 0.53828 0.00000
vt 0.73775 0.05095
vt 0.57544 0.49995
vt 0.56687 0.46866
vt 0.56687 0.53124
vt 0.95942 0.25821
vt 1.00000 0.35151
vt 0.73534 0.95010
vt 0.50000 0.00000
vt 0.33333 1.00000
vt 0.16667 1.00000
vt 0.16667 0.00000
vt 0.00000 0.00000
vt 0.66667 0.00000
vt 0.66667 1.00000
vt 0.83333 0.00000
vt 0.83333 1.00000
vt 1.00000 1.00000
vt 0.06699 0.75000
vt 0.75000 0.06699
vt 0.93301 0.25000
vt 0.93301 0.75000
vt 1.00000 0.50000
vt 0.75000 0.93301
vt 0.25000 0.93301
vt 0.00000 0.50000
vt 0.06699 0.25000
vt 0.25000 0.06699
vt 0.98796 0.37714
vt 1.00000 0.50584
vt 0.97970 0.67310
vt 0.91949 0.83781
vt 0.95236 0.24991
vt 0.81936 1.00000
vt 0.89321 0.12419
vt 0.81050 0.00000
vt 0.00000 1.00000
vt 1.00000 1.00000
vt 1.00000 0.00000
vt 1.00000 1.00000
vt 0.00000 1.00000
vt 0.00000 1.00000
# 208 texture verticies
vn 0.86601 0.00000 -0.50003
vn 0.49998 0.00000 -0.86604
vn -0.00003 0.00000 -1.00000
vn 0.49998 0.00000 -0.86604
vn -0.00003 0.00000 -1.00000
vn 0.86601 0.00000 0.50003
vn 0.49998 0.00000 0.86604
vn 1.00000 0.00000 -0.00000
vn -0.00003 0.00000 1.00000
vn 0.86601 0.00000 0.50003
vn 0.49998 0.00000 0.86604
vn -0.00003 0.00000 1.00000
vn 0.49998 0.00000 0.86604
vn -0.00003 0.00000 1.00000
vn 0.86601 0.00000 -0.50003
vn 0.49998 0.00000 -0.86604
vn 1.00000 0.00000 0.00000
vn 1.00000 0.00000 0.00000
vn -0.00003 -0.00000 -1.00000
vn 0.79286 0.00000 0.60940
vn 0.89917 0.00000 0.43761
vn 0.84782 0.00000 0.53028
vn 0.20099 0.00000 -0.97959
vn 0.30350 0.00000 -0.95283
vn 0.39379 0.00000 -0.91920
vn 0.72394 0.00000 0.68987
vn 0.65419 0.00000 0.75633
vn 0.57051 0.00000 0.82129
vn 0.48882 0.00000 0.87238
vn 0.30350 0.00000 0.95283
vn 0.39379 0.00000 0.91920
vn 0.20099 0.00000 0.97959
vn 0.15357 0.00000 0.98814
vn 0.22922 0.00000 0.97337
vn 0.00000 0.00000 1.00000
vn 0.07702 0.00000 0.99703
vn 0.93710 0.00000 0.34905
vn 0.96877 0.00000 0.24795
vn 0.98814 0.00000 0.15358
vn 0.99884 0.00000 0.04817
vn 0.99884 0.00000 -0.04817
vn 0.98814 0.00000 -0.15358
vn 0.93710 0.00000 -0.34905
vn 0.96877 0.00000 -0.24795
vn 0.89917 0.00000 -0.43761
vn 0.84782 0.00000 -0.53028
vn 0.72394 0.00000 -0.68987
vn 0.79286 0.00000 -0.60940
vn 0.57051 0.00000 -0.82129
vn 0.65419 0.00000 -0.75633
vn 0.48882 0.00000 -0.87238
vn 0.30350 0.00000 -0.95283
vn 0.00000 0.00000 -1.00000
vn 0.00000 0.00000 -1.00000
vn 0.07702 0.00000 -0.99703
vn 0.22922 0.00000 -0.97337
vn 0.15357 0.00000 -0.98814
vn -0.10017 0.00000 0.99497
vn -0.20151 0.00000 0.97949
vn -0.19934 0.00000 0.97993
vn -0.72538 0.00000 0.68835
vn -0.64942 0.00000 0.76043
vn -0.57180 0.00000 0.82039
vn -0.39475 0.00000 0.91879
vn -0.48286 0.00000 0.87570
vn -0.29650 0.00000 0.95503
vn -0.96759 0.00000 0.25252
vn -0.93820 0.00000 0.34610
vn -0.98869 0.00000 0.14994
vn -0.78933 0.00000 0.61397
vn -0.84921 0.00000 0.52805
vn -0.89686 0.00000 0.44232
vn -0.96759 -0.00000 -0.25252
vn -0.89686 -0.00000 -0.44232
vn -0.93820 -0.00000 -0.34610
vn -0.99863 -0.00000 -0.05236
vn -0.98869 -0.00000 -0.14994
vn -0.99863 0.00000 0.05236
vn -0.64942 -0.00000 -0.76043
vn -0.57180 -0.00000 -0.82039
vn -0.72538 -0.00000 -0.68835
vn -0.84921 -0.00000 -0.52805
vn -0.78933 -0.00000 -0.61397
vn -0.48286 -0.00000 -0.87570
vn -0.39475 -0.00000 -0.91879
vn -0.19934 -0.00000 -0.97993
vn -0.20151 -0.00000 -0.97949
vn -0.29650 -0.00000 -0.95503
vn -0.29650 -0.00000 -0.95503
vn -0.10017 -0.00000 -0.99497
vn -0.00000 -0.00000 -1.00000
vn -0.00000 -0.00000 -1.00000
vn -0.00000 0.00000 1.00000
vn 0.00000 1.00000 0.00000
vn -0.00000 -1.00000 -0.00000
vn -1.00000 0.00000 0.00000
vn -1.00000 -0.00000 -0.00000
vn -0.86601 0.00000 0.50003
vn -0.86601 0.00000 0.50003
vn -0.49998 0.00000 0.86604
vn 0.00003 0.00000 1.00000
vn 0.00003 0.00000 1.00000
vn -0.86601 -0.00000 -0.50003
vn -0.49998 -0.00000 -0.86604
vn 0.00003 0.00000 -1.00000
vn 0.00003 0.00000 -1.00000
vn -1.00000 0.00000 -0.00000
vn -1.00000 0.00000 0.00000
vn -0.86601 0.00000 -0.50003
vn -0.86601 0.00000 -0.50003
vn -0.49998 0.00000 -0.86604
vn 0.00003 0.00000 -1.00000
vn 0.00003 0.00000 -1.00000
vn -0.86601 0.00000 0.50003
vn -0.49998 0.00000 0.86604
vn 0.00003 0.00000 1.00000
vn 0.00003 0.00000 1.00000
vn 1.00000 0.00000 0.00000
vn -1.00000 0.00000 0.00000
vn 0.00000 0.00000 1.00000
vn 0.00000 0.00000 -1.00000
# 121 normals
usemtl Explorer_Default
f  1/1/1 3/2/2 2/3/1
f  4/4/3 6/5/4 5/6/5
f  7/7/6 9/8/7 8/9/7
f  10/10/6 12/11/8 11/12/8
f  13/13/9 14/14/9 9/8/7
f  8/9/7 9/8/7 14/14/9
f  11/12/8 7/7/6 10/10/6
f  7/7/6 8/9/7 10/10/6
f  12/11/8 1/1/1 2/3/1
f  11/12/8 12/11/8 2/3/1
f  6/5/4 4/4/3 3/2/2
f  1/1/1 6/5/4 3/2/2
f  15/1/10 17/2/11 16/3/10
f  18/4/12 20/5/13 19/6/14
f  21/7/15 23/8/16 22/9/16
f  24/10/15 26/11/17 25/12/18
f  27/13/19 28/14/19 23/8/16
f  22/9/16 23/8/16 28/14/19
f  25/12/18 21/7/15 24/10/15
f  21/7/15 22/9/16 24/10/15
f  26/11/17 15/1/10 16/3/10
f  25/12/18 26/11/17 16/3/10
f  20/5/13 18/4/12 17/2/11
f  15/1/10 20/5/13 17/2/11
f  29/15/20 31/16/21 30/17/22
f  32/18/23 34/19/24 33/20/25
f  35/21/26 36/22/27 29/15/20
f  29/15/20 30/17/22 35/21/26
f  36/22/27 38/23/28 37/24/29
f  38/23/28 36/22/27 35/21/26
f  39/25/30 37/24/29 40/26/31
f  38/23/28 40/26/31 37/24/29
f  40/26/31 42/27/32 41/28/30
f  41/28/30 39/25/30 40/26/31
f  43/29/33 44/30/34 42/27/32
f  42/27/32 44/30/34 41/28/30
f  42/27/32 46/4/35 45/31/36
f  45/31/36 43/29/33 42/27/32
f  46/4/35 47/32/35 45/31/36
f  30/17/22 31/16/21 48/33/37
f  48/33/37 50/34/38 49/35/39
f  50/34/38 48/33/37 31/16/21
f  49/35/39 52/36/40 51/37/41
f  50/34/38 52/36/40 49/35/39
f  51/37/41 52/36/40 53/38/42
f  53/38/42 55/39/43 54/40/44
f  54/40/44 51/37/41 53/38/42
f  56/41/45 55/39/43 57/42/46
f  55/39/43 56/41/45 54/40/44
f  58/43/47 59/44/48 57/42/46
f  56/41/45 57/42/46 59/44/48
f  58/43/47 61/45/49 60/46/50
f  60/46/50 59/44/48 58/43/47
f  62/47/51 61/45/49 33/20/25
f  61/45/49 62/47/51 60/46/50
f  62/47/51 33/20/25 63/48/52
f  64/14/53 66/49/54 65/50/55
f  64/14/53 65/50/55 32/18/23
f  67/51/56 32/18/23 68/52/57
f  32/18/23 65/50/55 68/52/57
f  67/51/56 34/19/24 32/18/23
f  63/48/52 33/20/25 34/19/24
f  69/53/58 71/54/59 70/55/60
f  72/56/61 74/57/62 73/58/63
f  75/59/64 77/60/65 76/61/66
f  78/62/67 80/63/68 79/64/69
f  81/65/70 83/66/71 82/67/72
f  84/68/73 86/69/74 85/70/75
f  87/71/76 89/72/77 88/73/78
f  90/74/79 92/75/80 91/76/81
f  91/76/81 94/77/82 93/78/83
f  92/75/80 96/79/84 95/80/85
f  96/79/84 92/75/80 90/74/79
f  97/81/86 99/82/87 98/83/88
f  98/83/88 99/82/87 95/80/85
f  98/83/88 95/80/85 100/84/89
f  95/80/85 96/79/84 100/84/89
f  99/82/87 97/81/86 101/85/90
f  101/85/90 66/86/91 64/6/92
f  64/6/92 99/82/87 101/85/90
f  93/78/83 90/74/79 91/76/81
f  86/69/74 93/78/83 94/77/82
f  85/70/75 89/72/77 84/68/73
f  94/77/82 85/70/75 86/69/74
f  87/71/76 88/73/78 79/64/69
f  84/68/73 89/72/77 87/71/76
f  80/63/68 78/62/67 82/67/72
f  79/64/69 88/73/78 78/62/67
f  72/56/61 83/66/71 81/65/70
f  83/66/71 80/63/68 82/67/72
f  77/60/65 73/58/63 74/57/62
f  74/57/62 72/56/61 81/65/70
f  76/61/66 102/87/66 75/59/64
f  77/60/65 75/59/64 73/58/63
f  102/87/66 70/55/60 71/54/59
f  71/54/59 75/59/64 102/87/66
f  46/13/93 69/53/58 47/88/93
f  71/54/59 69/53/58 46/13/93
f  103/89/94 100/90/94 96/91/94
f  12/92/94 10/93/94 84/94/94
f  104/95/94 56/96/94 59/97/94
f  96/91/94 90/98/94 103/89/94
f  46/99/94 42/100/94 5/101/94
f  90/98/94 93/102/94 103/89/94
f  1/103/94 12/92/94 80/104/94
f  79/105/94 12/92/94 87/106/94
f  1/103/94 83/107/94 72/108/94
f  80/104/94 83/107/94 1/103/94
f  73/109/94 6/110/94 72/108/94
f  1/103/94 72/108/94 6/110/94
f  71/111/94 6/110/94 75/112/94
f  6/110/94 73/109/94 75/112/94
f  40/113/94 105/114/94 42/100/94
f  5/101/94 6/110/94 71/111/94
f  105/114/94 35/115/94 106/116/94
f  40/113/94 38/117/94 105/114/94
f  49/118/94 107/119/94 106/116/94
f  48/120/94 106/116/94 30/121/94
f  54/122/94 104/95/94 107/119/94
f  51/123/94 107/119/94 49/118/94
f  104/95/94 109/124/94 108/125/94
f  14/126/94 109/124/94 103/89/94
f  103/89/94 8/127/94 14/126/94
f  62/128/94 109/124/94 60/129/94
f  63/130/94 109/124/94 62/128/94
f  71/111/94 46/99/94 5/101/94
f  59/97/94 60/129/94 109/124/94
f  103/89/94 93/102/94 10/93/94
f  12/92/94 84/94/94 87/106/94
f  54/122/94 56/96/94 104/95/94
f  12/92/94 79/105/94 80/104/94
f  10/93/94 86/131/94 84/94/94
f  86/131/94 10/93/94 93/102/94
f  103/89/94 10/93/94 8/127/94
f  108/125/94 109/124/94 14/126/94
f  104/95/94 59/97/94 109/124/94
f  107/119/94 51/123/94 54/122/94
f  48/120/94 49/118/94 106/116/94
f  30/121/94 106/116/94 35/115/94
f  35/115/94 105/114/94 38/117/94
f  105/114/94 5/101/94 42/100/94
f  110/132/95 32/133/95 33/134/95
f  111/135/95 36/136/95 37/137/95
f  112/138/95 50/139/95 113/140/95
f  114/141/95 74/142/95 81/143/95
f  36/136/95 111/135/95 29/144/95
f  111/135/95 37/137/95 39/145/95
f  112/138/95 115/146/95 55/147/95
f  52/148/95 112/138/95 53/149/95
f  57/150/95 115/146/95 58/151/95
f  57/150/95 55/147/95 115/146/95
f  110/132/95 61/152/95 58/151/95
f  58/151/95 115/146/95 110/132/95
f  61/152/95 110/132/95 33/134/95
f  19/153/95 64/154/95 32/133/95
f  50/139/95 112/138/95 52/148/95
f  99/155/95 64/154/95 19/153/95
f  92/156/95 95/157/95 20/158/95
f  20/158/95 95/157/95 99/155/95
f  15/159/95 85/160/95 94/161/95
f  20/158/95 15/159/95 91/162/95
f  15/159/95 26/163/95 89/164/95
f  24/165/95 78/166/95 26/163/95
f  26/163/95 88/167/95 89/164/95
f  82/168/95 24/165/95 81/143/95
f  28/169/95 114/141/95 22/170/95
f  111/135/95 28/169/95 116/171/95
f  74/142/95 114/141/95 77/172/95
f  77/172/95 114/141/95 76/173/95
f  29/144/95 111/135/95 113/140/95
f  32/133/95 110/132/95 19/153/95
f  78/166/95 24/165/95 82/168/95
f  112/138/95 55/147/95 53/149/95
f  113/140/95 50/139/95 31/174/95
f  31/174/95 29/144/95 113/140/95
f  111/135/95 116/171/95 113/140/95
f  111/135/95 114/141/95 28/169/95
f  24/165/95 114/141/95 81/143/95
f  114/141/95 24/165/95 22/170/95
f  26/163/95 78/166/95 88/167/95
f  85/160/95 15/159/95 89/164/95
f  94/161/95 91/162/95 15/159/95
f  91/162/95 92/156/95 20/158/95
f  20/158/95 99/155/95 19/153/95
f  112/11/96 117/175/97 115/176/98
f  118/7/99 110/177/100 115/176/98
f  115/176/98 117/175/97 118/7/99
f  19/14/101 110/177/100 119/178/100
f  118/7/99 119/178/100 110/177/100
f  18/179/102 19/14/101 119/178/100
f  120/180/103 117/175/97 112/11/96
f  120/180/103 113/181/103 121/182/104
f  113/181/103 120/180/103 112/11/96
f  116/183/104 27/4/105 121/182/104
f  121/182/104 113/181/103 116/183/104
f  116/183/104 28/184/106 27/4/105
f  121/185/95 16/186/95 17/187/95
f  119/188/95 117/11/95 18/189/95
f  119/188/95 118/190/95 117/11/95
f  117/11/95 120/191/95 18/189/95
f  25/12/95 27/192/95 23/193/95
f  27/192/95 25/12/95 16/186/95
f  21/194/95 25/12/95 23/193/95
f  16/186/95 121/185/95 27/192/95
f  18/189/95 120/191/95 17/187/95
f  120/191/95 121/185/95 17/187/95
f  107/11/107 122/175/108 106/176/109
f  123/7/110 105/177/111 106/176/109
f  106/176/109 122/175/108 123/7/110
f  5/14/112 105/177/111 124/178/111
f  123/7/110 124/178/111 105/177/111
f  4/179/113 5/14/112 124/178/111
f  125/180/114 122/175/108 107/11/107
f  125/180/114 104/181/114 126/182/115
f  104/181/114 125/180/114 107/11/107
f  108/183/115 13/4/116 126/182/115
f  126/182/115 104/181/114 108/183/115
f  108/183/115 14/184/117 13/4/116
f  126/185/94 2/186/94 3/187/94
f  124/188/94 122/11/94 4/189/94
f  124/188/94 123/190/94 122/11/94
f  122/11/94 125/191/94 4/189/94
f  11/12/94 13/192/94 9/193/94
f  13/192/94 11/12/94 2/186/94
f  7/194/94 11/12/94 9/193/94
f  2/186/94 126/185/94 13/192/94
f  4/189/94 125/191/94 3/187/94
f  125/191/94 126/185/94 3/187/94
f  127/14/95 45/195/95 47/196/95
f  47/196/95 69/197/95 127/14/95
f  128/13/95 45/195/95 127/14/95
f  70/198/95 127/14/95 69/197/95
f  45/195/95 128/13/95 43/199/95
f  127/14/95 70/198/95 102/200/95
f  44/201/95 43/199/95 128/13/95
f  44/201/95 128/13/95 41/202/95
f  102/203/118 114/4/118 127/204/118
f  114/4/118 102/203/118 76/13/118
f  39/4/119 41/204/119 128/203/119
f  39/4/119 128/203/119 111/13/119
f  127/203/120 111/205/120 128/204/120
f  111/205/120 127/203/120 114/13/120
f  129/14/94 65/195/94 66/196/94
f  66/196/94 101/197/94 129/14/94
f  130/13/94 65/195/94 129/14/94
f  97/198/94 129/14/94 101/197/94
f  65/195/94 130/13/94 68/199/94
f  129/14/94 97/198/94 98/200/94
f  67/201/94 68/199/94 130/13/94
f  67/201/94 130/13/94 34/202/94
f  98/4/118 100/206/118 103/207/118
f  98/4/118 103/207/118 129/13/118
f  63/14/119 130/4/119 109/206/119
f  130/4/119 63/14/119 34/13/119
f  109/208/121 130/13/121 129/4/121
f  109/208/121 129/4/121 103/206/121
