# 
# Wavefront OBJ file
# Converted by the DEEP Exploration Deep Exploration 6.3 6.3.3.8068
# Right Hemisphere, LTD
# http://www.righthemisphere.com/
# 
mtllib ¶¨Î»Ïú.mtl
# object ?¡§???¨²
g ________
v 5.69898 54.00000 1.86855
v 7.60850 52.00000 2.47213
v 5.99793 54.00000 0.01571
v -0.00000 52.00000 -7.99999
v -0.00000 54.00000 -5.99999
v 2.47213 52.00000 -7.60843
v 7.99995 52.00000 0.00000
v 6.47213 52.00000 4.70230
v 3.51561 54.00000 4.85905
v 4.70228 52.00000 6.47214
v 4.84317 54.00000 3.53709
v -0.00000 52.00000 7.99999
v 2.47213 52.00000 7.60843
v 1.85805 54.00000 5.70494
v -0.00000 54.00000 5.99999
v 5.70929 54.00000 -1.84021
v 4.86013 54.00000 -3.51687
v 7.60850 52.00000 -2.47213
v 6.47213 52.00000 -4.70230
v 3.53302 54.00000 -4.84899
v 4.70228 52.00000 -6.47214
v 1.85805 54.00000 -5.70494
v 8.00000 3.00000 -0.00000
v 7.60845 3.00000 2.47214
v 6.47214 3.00000 4.70228
v 4.70228 3.00000 6.47214
v 2.47214 3.00000 7.60845
v -0.00000 3.00000 7.99999
v 7.60845 3.00000 -2.47214
v 6.47214 3.00000 -4.70228
v 4.70228 3.00000 -6.47214
v 2.47214 3.00000 -7.60845
v -0.00000 3.00000 -7.99999
v 8.90839 0.00000 1.28083
v 8.90839 0.00000 -1.28083
v 8.90839 3.00000 1.28083
v 8.18669 3.00000 3.73874
v 8.18669 0.00000 3.73874
v 6.80175 3.00000 5.89375
v 6.80175 0.00000 5.89375
v 4.86577 0.00000 7.57128
v 4.86577 3.00000 7.57128
v 2.53559 3.00000 8.63544
v 2.53559 0.00000 8.63544
v -0.00000 3.00000 8.99999
v -0.00000 0.00000 8.99999
v 8.90839 3.00000 -1.28083
v 8.18669 0.00000 -3.73874
v 8.18669 3.00000 -3.73874
v 6.80175 3.00000 -5.89375
v 6.80175 0.00000 -5.89375
v 4.86577 0.00000 -7.57128
v 4.86577 3.00000 -7.57128
v 2.53559 0.00000 -8.63544
v 2.53559 3.00000 -8.63544
v -0.00000 -0.00000 -8.99999
v -0.00000 3.00000 -8.99999
v -2.53559 3.00000 8.63544
v -8.18669 3.00000 3.73874
v -6.80175 0.00000 5.89375
v -6.80175 3.00000 5.89375
v -4.86577 3.00000 7.57128
v -4.86577 0.00000 7.57128
v -2.53559 0.00000 8.63544
v -8.90839 0.00000 -1.28083
v -8.90839 3.00000 -1.28083
v -8.18669 3.00000 -3.73874
v -8.18669 0.00000 3.73874
v -8.90839 3.00000 1.28083
v -8.90839 0.00000 1.28083
v -6.80175 0.00000 -5.89375
v -4.86577 3.00000 -7.57128
v -4.86577 0.00000 -7.57128
v -6.80175 3.00000 -5.89375
v -8.18669 0.00000 -3.73874
v -2.53559 0.00000 -8.63544
v -2.53559 3.00000 -8.63544
v -7.99995 3.00000 0.00000
v -7.60850 3.00000 2.47213
v -7.60850 3.00000 -2.47213
v -6.47213 3.00000 -4.70230
v -4.70228 3.00000 -6.47214
v -2.47213 3.00000 -7.60843
v -6.47213 3.00000 4.70230
v -4.70228 3.00000 6.47214
v -2.47213 3.00000 7.60843
v -2.47213 52.00000 7.60843
v -7.60850 52.00000 2.47213
v -6.47213 52.00000 4.70230
v -4.70228 52.00000 6.47214
v -7.60850 52.00000 -2.47213
v -6.47213 52.00000 -4.70230
v -7.99995 52.00000 0.00000
v -4.70228 52.00000 -6.47214
v -2.47213 52.00000 -7.60843
v -3.53302 54.00000 -4.84901
v -4.86015 54.00000 -3.51687
v -5.70929 54.00000 -1.84021
v -1.85804 54.00000 5.70492
v -1.85804 54.00000 -5.70492
v -5.99793 54.00000 0.01571
v -5.69898 54.00000 1.86855
v -4.84318 54.00000 3.53710
v -3.51561 54.00000 4.85906
# 104 verticies
vt 0.60000 0.00000
vt 0.60000 1.00000
vt 0.50000 0.00000
vt 0.00000 1.00000
vt 0.00000 0.00000
vt 0.10000 1.00000
vt 0.50000 1.00000
vt 0.70000 1.00000
vt 0.80000 0.00000
vt 0.80000 1.00000
vt 0.70000 0.00000
vt 1.00000 1.00000
vt 0.90000 1.00000
vt 0.90000 0.00000
vt 1.00000 0.00000
vt 0.40000 0.00000
vt 0.30000 0.00000
vt 0.40000 1.00000
vt 0.30000 1.00000
vt 0.20000 0.00000
vt 0.20000 1.00000
vt 0.10000 0.00000
vt 0.60000 0.00000
vt 0.50000 1.00000
vt 0.50000 0.00000
vt 0.70000 0.00000
vt 0.60000 1.00000
vt 0.70000 1.00000
vt 0.80000 0.00000
vt 0.80000 1.00000
vt 1.00000 0.00000
vt 0.90000 1.00000
vt 1.00000 1.00000
vt 0.40000 1.00000
vt 0.40000 0.00000
vt 0.30000 1.00000
vt 0.20000 1.00000
vt 0.30000 0.00000
vt 0.10000 1.00000
vt 0.20000 0.00000
vt 0.10000 0.00000
vt 0.00000 1.00000
vt 0.00000 0.00000
vt 0.54545 1.00000
vt 0.45455 1.00000
vt 0.54545 0.00000
vt 0.63636 0.00000
vt 0.63636 1.00000
vt 0.72727 0.00000
vt 0.72727 1.00000
vt 0.81818 1.00000
vt 0.81818 0.00000
vt 0.90909 0.00000
vt 0.90909 1.00000
vt 1.00000 1.00000
vt 0.45455 0.00000
vt 0.36364 1.00000
vt 0.36364 0.00000
vt 0.27273 0.00000
vt 0.27273 1.00000
vt 0.18182 1.00000
vt 0.18182 0.00000
vt 0.09091 1.00000
vt 0.09091 0.00000
vt 0.00000 1.00000
vt 0.00000 0.00000
vt 0.09091 0.00000
vt 0.36364 0.00000
vt 0.27273 1.00000
vt 0.18182 1.00000
vt 0.09091 1.00000
vt 0.54545 1.00000
vt 0.54545 0.00000
vt 0.36364 1.00000
vt 0.45455 0.00000
vt 0.45455 1.00000
vt 0.81818 0.00000
vt 0.72727 0.00000
vt 0.90909 1.00000
vt 1.00000 1.00000
vt 0.42884 0.00000
vt 0.57116 0.00000
vt 0.50000 0.05099
vt 0.17257 0.88176
vt 0.07937 0.77310
vt 0.14044 0.76392
vt 0.70771 0.04051
vt 0.63734 0.07296
vt 0.36266 0.07296
vt 0.29229 0.04051
vt 0.17257 0.11824
vt 0.23876 0.13674
vt 0.14044 0.23608
vt 0.07731 0.36125
vt 0.07937 0.22690
vt 0.76124 0.13674
vt 0.82743 0.11824
vt 0.02025 0.64231
vt 0.05556 0.50000
vt 0.07731 0.63875
vt 0.85956 0.23608
vt 0.92063 0.22690
vt 0.29229 0.95949
vt 0.23876 0.86326
vt 0.92063 0.77310
vt 0.92269 0.63875
vt 0.97975 0.64231
vt 0.57116 1.00000
vt 0.42884 1.00000
vt 0.50000 0.94901
vt 0.63734 0.92704
vt 0.70771 0.95949
vt 0.76124 0.86326
vt 0.82743 0.88176
vt 0.36266 0.92704
vt 0.85956 0.76392
vt 0.94444 0.50000
vt 0.00000 0.50000
vt 0.02025 0.35769
vt 1.00000 0.50000
vt 0.97975 0.35769
vt 0.92269 0.36125
vt 0.10000 0.00000
vt 0.40000 0.00000
vt 0.30000 1.00000
vt 0.30000 0.00000
vt 0.10000 1.00000
vt 0.70000 0.00000
vt 0.40000 1.00000
vt 0.50000 0.00000
vt 0.80000 1.00000
vt 0.80000 0.00000
vt 0.09508 0.20693
vt 0.20524 0.09626
vt 0.34429 0.02492
vt 0.20693 0.90515
vt 0.97541 0.34511
vt 0.02459 0.34511
vt 0.49869 0.00000
vt 0.65335 0.02406
vt 0.79307 0.09485
vt 0.09592 0.79452
vt 0.90408 0.20548
vt 0.02459 0.65489
vt 0.34665 0.97594
vt 0.97541 0.65489
vt 0.50131 1.00000
vt 0.90492 0.79307
vt 0.65571 0.97508
vt 0.79476 0.90374
vt 0.00000 0.00000
vt 0.10000 0.00000
vt 0.10000 1.00000
vt 0.30000 1.00000
vt 0.20000 0.00000
vt 0.50000 1.00000
vt 0.50000 0.00000
vt 0.40000 1.00000
vt 0.40000 0.00000
vt 0.80000 1.00000
vt 0.70000 0.00000
vt 0.80000 0.00000
vt 0.60000 0.00000
vt 0.70000 1.00000
vt 0.90000 0.00000
vt 1.00000 0.00000
vt 1.00000 1.00000
# 167 texture verticies
vn 0.67250 0.70711 0.21849
vn 0.70711 0.70710 0.00000
vn -0.00002 0.70711 -0.70711
vn -0.00002 0.70711 -0.70711
vn 0.21852 0.70711 -0.67249
vn 0.70711 0.70710 0.00000
vn 0.57207 0.70711 0.41561
vn 0.41561 0.70711 0.57208
vn -0.00002 0.70711 0.70711
vn 0.21853 0.70711 0.67249
vn -0.00002 0.70711 0.70711
vn 0.67250 0.70711 -0.21849
vn 0.57207 0.70711 -0.41561
vn 0.67250 0.70711 -0.21849
vn 0.57207 0.70711 -0.41561
vn 0.41561 0.70711 -0.57208
vn 0.95107 0.00000 0.30899
vn 1.00000 0.00000 -0.00000
vn 1.00000 0.00000 0.00000
vn 0.80903 0.00000 0.58777
vn 0.95107 0.00000 0.30899
vn 0.80903 0.00000 0.58777
vn 0.58776 0.00000 0.80904
vn 0.30904 0.00000 0.95105
vn -0.00003 0.00000 1.00000
vn 0.95107 0.00000 -0.30899
vn 0.80903 0.00000 -0.58777
vn 0.58776 0.00000 -0.80904
vn 0.80903 0.00000 -0.58777
vn 0.30904 0.00000 -0.95105
vn 0.30904 0.00000 -0.95105
vn -0.00003 -0.00000 -1.00000
vn -0.00003 -0.00000 -1.00000
vn 0.98983 0.00000 0.14227
vn 0.98983 0.00000 -0.14227
vn 0.90962 0.00000 0.41544
vn 0.90962 0.00000 0.41544
vn 0.75576 0.00000 0.65484
vn 0.75576 0.00000 0.65484
vn 0.54061 0.00000 0.84127
vn 0.54061 0.00000 0.84127
vn 0.28176 0.00000 0.95949
vn 0.28176 0.00000 0.95949
vn -0.00003 0.00000 1.00000
vn 0.98983 0.00000 -0.14227
vn 0.90962 0.00000 -0.41544
vn 0.90962 0.00000 -0.41544
vn 0.75576 0.00000 -0.65484
vn 0.54061 0.00000 -0.84127
vn 0.54061 0.00000 -0.84127
vn 0.28176 0.00000 -0.95949
vn 0.28176 0.00000 -0.95949
vn -0.00003 -0.00000 -1.00000
vn -0.28176 0.00000 0.95949
vn 0.00003 0.00000 1.00000
vn -0.90962 0.00000 0.41544
vn -0.75576 0.00000 0.65484
vn -0.54061 0.00000 0.84127
vn -0.54061 0.00000 0.84127
vn -0.98983 -0.00000 -0.14227
vn -0.90962 -0.00000 -0.41544
vn -0.98983 0.00000 0.14227
vn -0.75576 -0.00000 -0.65484
vn -0.54061 -0.00000 -0.84127
vn -0.28176 -0.00000 -0.95949
vn -0.28176 -0.00000 -0.95949
vn 0.00003 0.00000 -1.00000
vn 0.00003 0.00000 -1.00000
vn 0.00000 1.00000 0.00000
vn -0.00000 -1.00000 -0.00000
vn -0.30904 0.00000 0.95105
vn -0.95107 0.00000 0.30899
vn -0.80903 0.00000 0.58777
vn -0.80903 0.00000 0.58777
vn -0.58776 0.00000 0.80904
vn -0.95107 -0.00000 -0.30899
vn -0.80903 -0.00000 -0.58777
vn -1.00000 -0.00000 -0.00000
vn -0.58776 -0.00000 -0.80904
vn -0.30904 -0.00000 -0.95105
vn -0.80903 -0.00000 -0.58777
vn 0.00002 0.70711 0.70711
vn -0.21852 0.70711 0.67249
vn -0.57207 0.70711 0.41561
vn -0.41561 0.70711 0.57208
vn -0.67250 0.70711 -0.21849
vn -0.70711 0.70710 -0.00000
vn -0.70711 0.70710 -0.00000
vn -0.67250 0.70711 0.21849
vn -0.57207 0.70711 0.41561
vn -0.41561 0.70711 -0.57208
vn -0.57207 0.70711 -0.41561
vn -0.21852 0.70711 -0.67249
vn 0.00002 0.70711 -0.70711
# 94 normals
usemtl Explorer_Default
f  1/1/1 2/2/1 3/3/2
f  4/4/3 5/5/4 6/6/5
f  3/3/2 2/2/1 7/7/6
f  1/1/1 8/8/7 2/2/1
f  9/9/8 10/10/8 11/11/7
f  11/11/7 10/10/8 8/8/7
f  1/1/1 11/11/7 8/8/7
f  12/12/9 13/13/10 14/14/10
f  14/14/10 13/13/10 9/9/8
f  14/14/10 15/15/11 12/12/9
f  13/13/10 10/10/8 9/9/8
f  16/16/12 3/3/2 7/7/6
f  17/17/13 16/16/12 18/18/14
f  7/7/6 18/18/14 16/16/12
f  19/19/15 20/20/16 17/17/13
f  17/17/13 18/18/14 19/19/15
f  20/20/16 21/21/16 22/22/5
f  21/21/16 20/20/16 19/19/15
f  5/5/4 22/22/5 6/6/5
f  21/21/16 6/6/5 22/22/5
f  2/23/17 23/24/18 7/25/19
f  2/23/17 8/26/20 24/27/21
f  24/27/21 23/24/18 2/23/17
f  25/28/22 8/26/20 10/29/23
f  8/26/20 25/28/22 24/27/21
f  13/14/24 26/30/23 10/29/23
f  25/28/22 10/29/23 26/30/23
f  13/14/24 12/31/25 27/32/24
f  27/32/24 26/30/23 13/14/24
f  12/31/25 28/33/25 27/32/24
f  29/34/26 7/25/19 23/24/18
f  18/35/26 29/34/26 30/36/27
f  29/34/26 18/35/26 7/25/19
f  31/37/28 19/38/29 30/36/27
f  18/35/26 30/36/27 19/38/29
f  31/37/28 32/39/30 21/40/28
f  21/40/28 19/38/29 31/37/28
f  6/41/31 32/39/30 33/42/32
f  32/39/30 6/41/31 21/40/28
f  6/41/31 33/42/32 4/43/33
f  34/44/34 35/45/35 36/46/34
f  37/47/36 38/48/37 34/44/34
f  34/44/34 36/46/34 37/47/36
f  38/48/37 39/49/38 40/50/39
f  39/49/38 38/48/37 37/47/36
f  41/51/40 40/50/39 42/52/41
f  39/49/38 42/52/41 40/50/39
f  43/53/42 44/54/43 41/51/40
f  41/51/40 42/52/41 43/53/42
f  45/31/25 44/54/43 43/53/42
f  45/31/25 46/55/44 44/54/43
f  36/46/34 35/45/35 47/56/45
f  47/56/45 48/57/46 49/58/47
f  48/57/46 47/56/45 35/45/35
f  50/59/48 49/58/47 51/60/48
f  48/57/46 51/60/48 49/58/47
f  52/61/49 53/62/50 50/59/48
f  50/59/48 51/60/48 52/61/49
f  53/62/50 54/63/51 55/64/52
f  54/63/51 53/62/50 52/61/49
f  54/63/51 56/65/53 55/64/52
f  55/64/52 56/65/53 57/66/33
f  58/67/54 46/42/55 45/66/55
f  59/68/56 60/69/57 61/59/57
f  62/62/58 63/70/59 64/71/54
f  65/72/60 66/73/60 67/47/61
f  68/74/56 69/75/62 70/76/62
f  71/50/63 72/77/64 73/51/64
f  74/78/63 71/50/63 75/48/61
f  76/79/65 73/51/64 77/53/66
f  72/77/64 77/53/66 73/51/64
f  57/31/67 56/80/68 76/79/65
f  76/79/65 77/53/66 57/31/67
f  67/47/61 74/78/63 75/48/61
f  74/78/63 72/77/64 71/50/63
f  70/76/62 66/73/60 65/72/60
f  65/72/60 67/47/61 75/48/61
f  68/74/56 59/68/56 69/75/62
f  70/76/62 69/75/62 66/73/60
f  60/69/57 63/70/59 61/59/57
f  68/74/56 60/69/57 59/68/56
f  62/62/58 64/71/54 58/67/54
f  61/59/57 63/70/59 62/62/58
f  46/42/55 58/67/54 64/71/54
f  66/81/69 69/82/69 78/83/69
f  50/84/69 53/85/69 31/86/69
f  69/82/69 59/87/69 79/88/69
f  80/89/69 67/90/69 66/81/69
f  74/91/69 67/90/69 81/92/69
f  82/93/69 83/94/69 72/95/69
f  84/96/69 59/87/69 61/97/69
f  55/98/69 33/99/69 32/100/69
f  85/101/69 61/97/69 62/102/69
f  49/103/69 50/84/69 30/104/69
f  42/105/69 27/106/69 43/107/69
f  36/108/69 47/109/69 23/110/69
f  24/111/69 37/112/69 36/108/69
f  37/112/69 25/113/69 39/114/69
f  49/103/69 29/115/69 47/109/69
f  55/98/69 32/100/69 53/85/69
f  39/114/69 26/116/69 42/105/69
f  27/106/69 28/117/69 43/107/69
f  57/118/69 33/99/69 55/98/69
f  33/99/69 57/118/69 77/119/69
f  72/95/69 74/91/69 82/93/69
f  53/85/69 32/100/69 31/86/69
f  50/84/69 31/86/69 30/104/69
f  49/103/69 30/104/69 29/115/69
f  47/109/69 29/115/69 23/110/69
f  36/108/69 23/110/69 24/111/69
f  37/112/69 24/111/69 25/113/69
f  39/114/69 25/113/69 26/116/69
f  42/105/69 26/116/69 27/106/69
f  43/107/69 28/117/69 45/120/69
f  58/121/69 28/117/69 86/122/69
f  45/120/69 28/117/69 58/121/69
f  62/102/69 86/122/69 85/101/69
f  58/121/69 86/122/69 62/102/69
f  61/97/69 85/101/69 84/96/69
f  59/87/69 84/96/69 79/88/69
f  69/82/69 79/88/69 78/83/69
f  66/81/69 78/83/69 80/89/69
f  67/90/69 80/89/69 81/92/69
f  74/91/69 81/92/69 82/93/69
f  72/95/69 83/94/69 77/119/69
f  33/99/69 77/119/69 83/94/69
f  46/120/70 51/84/70 48/103/70
f  41/105/70 34/108/70 40/114/70
f  40/114/70 34/108/70 38/112/70
f  35/109/70 41/105/70 44/107/70
f  41/105/70 35/109/70 34/108/70
f  44/107/70 46/120/70 48/103/70
f  48/103/70 35/109/70 44/107/70
f  52/85/70 64/121/70 63/102/70
f  70/82/70 76/119/70 68/87/70
f  60/97/70 56/118/70 54/98/70
f  71/91/70 65/81/70 75/90/70
f  73/95/70 65/81/70 71/91/70
f  70/82/70 65/81/70 73/95/70
f  56/118/70 68/87/70 76/119/70
f  76/119/70 70/82/70 73/95/70
f  63/102/70 60/97/70 54/98/70
f  60/97/70 68/87/70 56/118/70
f  64/121/70 52/85/70 51/84/70
f  63/102/70 54/98/70 52/85/70
f  51/84/70 46/120/70 64/121/70
f  87/123/71 28/42/55 12/66/55
f  88/124/72 84/125/73 89/126/74
f  90/40/75 85/37/75 86/127/71
f  80/27/76 91/23/76 92/128/77
f  79/129/72 93/130/78 78/24/78
f  82/131/79 94/132/79 95/14/80
f  94/132/79 82/131/79 81/28/81
f  4/31/67 83/32/80 95/14/80
f  82/131/79 95/14/80 83/32/80
f  33/33/67 83/32/80 4/31/67
f  81/28/81 80/27/76 92/128/77
f  92/128/77 94/132/79 81/28/81
f  78/24/78 93/130/78 91/23/76
f  78/24/78 91/23/76 80/27/76
f  79/129/72 84/125/73 88/124/72
f  79/129/72 88/124/72 93/130/78
f  89/126/74 85/37/75 90/40/75
f  84/125/73 85/37/75 89/126/74
f  87/123/71 86/127/71 28/42/55
f  90/40/75 86/127/71 87/123/71
f  96/133/69 97/134/69 98/135/69
f  17/136/69 99/137/69 15/120/69
f  100/138/69 96/133/69 101/139/69
f  98/135/69 101/139/69 96/133/69
f  102/140/69 100/138/69 101/139/69
f  5/118/69 102/140/69 103/141/69
f  102/140/69 5/118/69 100/138/69
f  99/137/69 17/136/69 20/142/69
f  104/143/69 22/144/69 103/141/69
f  16/145/69 15/120/69 14/146/69
f  3/147/69 9/148/69 1/149/69
f  9/148/69 11/150/69 1/149/69
f  3/147/69 16/145/69 14/146/69
f  14/146/69 9/148/69 3/147/69
f  99/137/69 20/142/69 104/143/69
f  15/120/69 16/145/69 17/136/69
f  20/142/69 22/144/69 104/143/69
f  22/144/69 5/118/69 103/141/69
f  15/151/82 99/152/83 87/153/83
f  89/154/84 90/21/85 104/155/85
f  91/2/86 93/156/87 101/157/88
f  88/158/89 103/126/90 102/159/89
f  94/160/91 97/161/92 96/162/91
f  98/163/86 97/161/92 92/164/92
f  100/165/93 95/13/93 96/162/91
f  94/160/91 96/162/91 95/13/93
f  100/165/93 5/166/94 4/167/94
f  4/167/94 95/13/93 100/165/93
f  97/161/92 94/160/91 92/164/92
f  91/2/86 101/157/88 98/163/86
f  91/2/86 98/163/86 92/164/92
f  93/156/87 88/158/89 102/159/89
f  93/156/87 102/159/89 101/157/88
f  103/126/90 89/154/84 104/155/85
f  88/158/89 89/154/84 103/126/90
f  99/152/83 90/21/85 87/153/83
f  104/155/85 90/21/85 99/152/83
f  15/151/82 87/153/83 12/4/82
