# 
# Wavefront OBJ file
# Converted by the DEEP Exploration Deep Exploration 6.3 6.3.3.8068
# Right Hemisphere, LTD
# http://www.righthemisphere.com/
# 
mtllib Ö§¼Ü2.mtl
# object ?¡ì?¨¹2
g ______2
v -167.50000 0.00000 -20.00000
v -167.50000 80.00000 -20.00000
v -167.50000 80.00000 20.00000
v -167.50000 0.00000 20.00000
v 167.50000 80.00000 20.00000
v 167.50000 0.00000 20.00000
v 167.50000 80.00000 -20.00000
v 167.50000 0.00000 -20.00000
# 8 verticies
vt 1.00000 0.00000
vt 0.00000 1.00000
vt 1.00000 1.00000
vt 0.00000 0.00000
vt 0.00000 1.00000
vt 1.00000 0.00000
vt 0.00000 1.00000
# 7 texture verticies
vn -1.00000 0.00000 0.00000
vn 0.00000 0.00000 1.00000
vn 1.00000 0.00000 0.00000
vn -0.00000 -0.00000 -1.00000
vn 0.00000 1.00000 0.00000
vn 0.00000 -1.00000 0.00000
# 6 normals
usemtl Explorer_Default
f  1/1/1 3/2/1 2/3/1
f  1/1/1 4/4/1 3/2/1
f  4/1/2 5/5/2 3/3/2
f  4/1/2 6/4/2 5/5/2
f  6/1/3 7/2/3 5/3/3
f  6/1/3 8/4/3 7/2/3
f  8/1/4 2/5/4 7/3/4
f  8/1/4 1/4/4 2/5/4
f  2/6/5 5/7/5 7/3/5
f  2/6/5 3/4/5 5/7/5
f  6/7/6 1/6/6 8/3/6
f  1/6/6 6/7/6 4/4/6
