# 
# Wavefront OBJ file
# Converted by the DEEP Exploration Deep Exploration 6.3 6.3.3.8068
# Right Hemisphere, LTD
# http://www.righthemisphere.com/
# 
mtllib Ö§¼Ü1.mtl
# object ?¡ì?¨¹1
g ______1
v -56.84730 0.00000 -25.58128
v -56.84730 80.00000 -25.58128
v -56.84730 80.00000 599.41870
v -56.84730 0.00000 599.41870
v -16.84730 0.00000 599.41870
v -16.84730 80.00000 599.41870
v -16.84730 80.00000 14.41872
v -16.84730 0.00000 14.41872
v 703.15271 80.00000 14.41872
v 703.15271 0.00000 14.41872
v 703.15271 80.00000 599.41870
v 703.15271 0.00000 599.41870
v 743.15271 0.00000 599.41870
v 743.15271 80.00000 599.41870
v 743.15271 80.00000 -25.58128
v 743.15271 0.00000 -25.58128
# 16 verticies
vt 1.00000 0.00000
vt 0.00000 1.00000
vt 1.00000 1.00000
vt 0.00000 0.00000
vt 0.00000 1.00000
vt 1.00000 0.00000
vt 0.00000 1.00000
vt 0.06400 0.05000
vt 1.00000 0.00000
vt 1.00000 0.05000
vt 0.06400 0.95000
vt 1.00000 0.95000
# 12 texture verticies
vn -1.00000 0.00000 0.00000
vn 1.00000 0.00000 0.00000
vn 0.00000 0.00000 1.00000
vn -1.00000 -0.00000 -0.00000
vn -0.00000 -0.00000 -1.00000
vn 0.00000 1.00000 0.00000
vn -0.00000 -1.00000 -0.00000
# 7 normals
usemtl Explorer_Default
f  1/1/1 3/2/1 2/3/1
f  1/1/1 4/4/1 3/2/1
f  5/1/2 7/5/2 6/3/2
f  5/1/2 8/4/2 7/5/2
f  8/6/3 9/2/3 7/3/3
f  8/6/3 10/4/3 9/2/3
f  10/6/4 11/2/4 9/3/4
f  10/6/4 12/4/4 11/2/4
f  13/1/2 15/5/2 14/3/2
f  13/1/2 16/4/2 15/5/2
f  16/1/5 2/7/5 15/3/5
f  16/1/5 1/4/5 2/7/5
f  7/8/6 3/9/6 6/10/6
f  7/8/6 15/2/6 2/4/6
f  9/11/6 11/12/6 14/3/6
f  7/8/6 9/11/6 15/2/6
f  3/9/6 7/8/6 2/4/6
f  14/3/6 15/2/6 9/11/6
f  4/9/7 1/4/7 8/8/7
f  8/8/7 16/2/7 10/11/7
f  4/9/7 8/8/7 5/10/7
f  10/11/7 13/3/7 12/12/7
f  10/11/7 16/2/7 13/3/7
f  8/8/7 1/4/7 16/2/7
f  3/2/3 5/1/3 6/3/3
f  5/1/3 3/2/3 4/4/3
f  11/2/3 13/1/3 14/3/3
f  13/1/3 11/2/3 12/4/3
