# 
# Wavefront OBJ file
# Converted by the DEEP Exploration Deep Exploration 6.3 6.3.3.8068
# Right Hemisphere, LTD
# http://www.righthemisphere.com/
# 
mtllib Í°.mtl
# object ¨ª¡ã
g ____
v -7.07066 135.00000 8.42649
v -7.07066 125.00000 8.42649
v -3.76222 125.00000 10.33662
v -0.00000 125.00000 11.00000
v -0.00000 135.00000 11.00000
v -3.76222 135.00000 10.33662
v -10.83289 125.00000 1.91013
v -10.83289 135.00000 -1.91013
v -10.83289 125.00000 -1.91013
v -10.83289 135.00000 1.91013
v -9.52628 125.00000 5.50000
v -9.52628 135.00000 5.50000
v -7.07066 135.00000 -8.42649
v -3.76222 135.00000 -10.33662
v -7.07066 125.00000 -8.42649
v -9.52628 125.00000 -5.50000
v -9.52628 135.00000 -5.50000
v -3.76222 125.00000 -10.33662
v -0.00000 135.00000 -11.00000
v -0.00000 125.00000 -11.00000
v -7.07066 0.00000 -8.42649
v -7.07066 110.00000 -8.42649
v -3.76222 110.00000 -10.33662
v -0.00000 110.00000 -11.00000
v -0.00000 0.00000 -11.00000
v -3.76222 0.00000 -10.33662
v -10.83289 110.00000 -1.91013
v -10.83289 0.00000 1.91013
v -10.83289 110.00000 1.91013
v -10.83289 0.00000 -1.91013
v -9.52628 110.00000 -5.50000
v -9.52628 0.00000 -5.50000
v -7.07066 0.00000 8.42649
v -3.76222 0.00000 10.33662
v -7.07066 110.00000 8.42649
v -9.52628 110.00000 5.50000
v -9.52628 0.00000 5.50000
v -3.76222 110.00000 10.33662
v -0.00000 -0.00000 11.00000
v -0.00000 110.00000 11.00000
v 18.00000 0.00000 0.00000
v 17.38667 135.00000 4.65874
v 18.00000 135.00000 0.00000
v 15.58846 135.00000 9.00000
v 17.38667 0.00000 4.65874
v 15.58846 0.00000 9.00000
v 12.72792 135.00000 12.72792
v 12.72792 0.00000 12.72792
v 9.00000 135.00000 15.58846
v 4.65874 135.00000 17.38667
v 9.00000 0.00000 15.58846
v 4.65874 0.00000 17.38667
v 0.00000 135.00000 18.00000
v 0.00000 0.00000 18.00000
v 17.38667 0.00000 -4.65874
v 17.38667 135.00000 -4.65874
v 15.58846 0.00000 -9.00000
v 15.58846 135.00000 -9.00000
v 12.72792 0.00000 -12.72792
v 9.00000 0.00000 -15.58846
v 12.72792 135.00000 -12.72792
v 9.00000 135.00000 -15.58846
v 4.65874 0.00000 -17.38667
v 4.65874 135.00000 -17.38667
v 0.00000 0.00000 -18.00000
v 0.00000 135.00000 -18.00000
v -4.65874 135.00000 17.38667
v -15.58846 135.00000 9.00000
v -12.72792 135.00000 12.72792
v -12.72792 0.00000 12.72792
v -9.00000 135.00000 15.58846
v -4.65874 0.00000 17.38667
v -9.00000 0.00000 15.58846
v -17.82554 7.00000 -2.50000
v -17.38667 135.00000 -4.65874
v -17.82554 128.00000 -2.50000
v -15.58846 0.00000 9.00000
v -17.38667 0.00000 4.65874
v -17.38667 135.00000 4.65874
v -12.72792 135.00000 -12.72792
v -12.72792 0.00000 -12.72792
v -9.00000 135.00000 -15.58846
v -15.58846 135.00000 -9.00000
v -17.38667 0.00000 -4.65874
v -15.58846 0.00000 -9.00000
v -9.00000 0.00000 -15.58846
v -4.65874 135.00000 -17.38667
v -4.65874 0.00000 -17.38667
v -17.98332 4.62298 -0.77451
v -17.98346 4.62200 0.77147
v -18.00000 0.00000 -0.00000
v -17.98332 130.37701 0.77451
v -17.98346 130.37801 -0.77147
v -18.00000 135.00000 -0.00000
v -17.82554 128.00000 2.50000
v -17.88615 5.52879 2.02127
v -17.82554 7.00000 2.50000
v -17.88597 5.53101 -2.02289
v -17.88615 129.47121 -2.02127
v -17.88597 129.46899 2.02289
v 3.76222 135.00000 -10.33662
v 3.76222 135.00000 10.33662
v 7.07066 135.00000 8.42649
v 7.07066 135.00000 -8.42649
v 10.83289 135.00000 1.91013
v 10.83289 135.00000 -1.91013
v 9.52628 135.00000 5.50000
v 9.52628 135.00000 -5.50000
v 3.76222 0.00000 10.33662
v 10.83289 0.00000 -1.91013
v 10.83289 0.00000 1.91013
v 9.52628 -0.00000 -5.50000
v 9.52628 0.00000 5.50000
v 7.07066 0.00000 8.42649
v 3.76222 -0.00000 -10.33662
v 7.07066 0.00000 -8.42649
v 10.83289 110.00000 -1.91013
v 10.83289 110.00000 1.91013
v 9.52628 110.00000 -5.50000
v 7.07066 110.00000 -8.42649
v 3.76222 110.00000 -10.33662
v 9.52628 110.00000 5.50000
v 7.07066 110.00000 8.42649
v 3.76222 110.00000 10.33662
v -13.50000 130.37764 -0.77254
v -13.50000 129.46947 -2.02254
v -13.50000 128.00000 -2.50000
v -13.50000 130.37764 0.77254
v -13.50000 129.46947 2.02254
v -13.50000 128.00000 2.50000
v -13.50000 7.00000 2.50000
v -13.50000 4.62236 0.77254
v -13.50000 5.53054 2.02254
v -13.50000 4.62236 -0.77254
v -13.50000 5.53054 -2.02254
v -13.50000 7.00000 -2.50000
v 10.83289 125.00000 1.91013
v 10.83289 125.00000 -1.91013
v 9.52628 125.00000 5.50000
v 7.07066 125.00000 8.42649
v 3.76222 125.00000 10.33662
v 9.52628 125.00000 -5.50000
v 7.07066 125.00000 -8.42649
v 3.76222 125.00000 -10.33662
# 144 verticies
vt 0.77778 1.00000
vt 0.88889 0.00000
vt 0.77778 0.00000
vt 1.00000 0.00000
vt 0.88889 1.00000
vt 1.00000 1.00000
vt 0.55556 0.00000
vt 0.44444 0.00000
vt 0.44444 1.00000
vt 0.55556 1.00000
vt 0.66667 1.00000
vt 0.66667 0.00000
vt 0.22222 1.00000
vt 0.22222 0.00000
vt 0.11111 1.00000
vt 0.33333 1.00000
vt 0.33333 0.00000
vt 0.11111 0.00000
vt 0.00000 1.00000
vt 0.00000 0.00000
vt 0.77778 1.00000
vt 0.88889 1.00000
vt 1.00000 1.00000
vt 0.44444 1.00000
vt 0.55556 1.00000
vt 0.66667 1.00000
vt 0.22222 1.00000
vt 0.11111 1.00000
vt 0.33333 1.00000
vt 0.00000 1.00000
vt 0.50000 1.00000
vt 0.50000 0.00000
vt 0.58333 0.00000
vt 0.66667 0.00000
vt 0.58333 1.00000
vt 0.75000 0.00000
vt 0.66667 1.00000
vt 0.75000 1.00000
vt 0.83333 0.00000
vt 0.91667 0.00000
vt 0.83333 1.00000
vt 0.91667 1.00000
vt 1.00000 1.00000
vt 0.41667 1.00000
vt 0.41667 0.00000
vt 0.25000 1.00000
vt 0.16667 1.00000
vt 0.25000 0.00000
vt 0.08333 1.00000
vt 0.16667 0.00000
vt 0.08333 0.00000
vt 0.00000 0.00000
vt 0.08333 0.00000
vt 0.25000 1.00000
vt 0.25000 0.00000
vt 0.16667 0.00000
vt 0.16667 1.00000
vt 0.08333 1.00000
vt 0.54435 0.94815
vt 0.54435 0.05185
vt 0.58333 0.00000
vt 0.75000 0.00000
vt 0.83333 0.00000
vt 0.75000 1.00000
vt 0.58333 1.00000
vt 0.51370 0.96576
vt 0.48635 0.96576
vt 0.48630 0.03424
vt 0.50000 0.00000
vt 0.51365 0.03424
vt 0.45565 0.05185
vt 0.46418 0.95905
vt 0.45565 0.94815
vt 0.53585 0.95903
vt 0.53582 0.04095
vt 0.46415 0.04097
vt 0.44694 0.19909
vt 0.37059 0.01704
vt 0.21287 0.60451
vt 0.01704 0.62941
vt 0.19444 0.50000
vt 0.34722 0.23538
vt 0.25000 0.06699
vt 0.55306 0.19909
vt 0.65278 0.23538
vt 0.62941 0.01704
vt 0.75000 0.06699
vt 0.85355 0.14645
vt 0.14645 0.14645
vt 0.26593 0.30359
vt 0.93301 0.25000
vt 0.98296 0.37059
vt 0.78713 0.39549
vt 0.01704 0.37059
vt 0.06699 0.25000
vt 0.21287 0.39549
vt 0.78713 0.60451
vt 0.93301 0.75000
vt 0.73407 0.69641
vt 0.14645 0.85355
vt 0.06699 0.75000
vt 0.26593 0.69641
vt 0.55306 0.80091
vt 0.50000 1.00000
vt 0.44694 0.80091
vt 0.65278 0.76462
vt 0.85355 0.85355
vt 0.62941 0.98296
vt 0.25000 0.93301
vt 0.34722 0.76462
vt 0.37059 0.98296
vt 0.80556 0.50000
vt 1.00000 0.50000
vt 0.98296 0.62941
vt 0.00000 0.50000
vt 0.73407 0.30359
vt 0.75000 0.93301
vt 0.55556 0.00000
vt 0.22222 0.00000
vt 0.22222 1.00000
vt 0.11111 0.00000
vt 0.11111 1.00000
vt 0.00000 0.00000
vt 0.66667 1.00000
vt 0.77778 0.00000
vt 0.77778 1.00000
vt 0.88889 1.00000
vt 0.88889 0.00000
vt 1.00000 1.00000
vt 0.25000 0.93969
vt 0.11698 0.82635
vt 0.96985 0.32635
vt 0.58682 1.00000
vt 0.96985 0.67365
vt 0.88302 0.82635
vt 0.75000 0.93969
vt 0.41318 1.00000
vt 0.03015 0.32635
vt 0.58682 0.00000
vt 0.75000 0.06031
vt 0.88302 0.17365
vt 0.03015 0.67365
vt 0.11698 0.17365
vt 0.41318 0.00000
vt 0.25000 0.06031
vt 0.59986 1.00000
vt 0.60000 0.00000
vt 0.39974 0.99997
vt 0.80000 0.00000
vt 0.79972 0.97830
vt 1.00000 0.96478
vt 0.40000 0.00000
vt 0.20000 0.00000
vt 0.19993 0.97826
vt 0.00000 0.96478
vt 0.00000 1.00000
vt 0.59986 1.00000
vt 0.80000 0.00000
vt 0.79972 0.97830
vt 1.00000 0.96478
vt 0.40000 0.00000
vt 0.19993 0.97826
vt 0.00000 0.96478
vt 0.34549 0.00000
vt 0.09549 0.99278
vt 0.34549 1.00000
vt 0.65451 1.00000
vt 0.90451 0.00722
vt 0.65451 0.00000
vt 0.00000 0.98109
vt 0.09549 0.00722
vt 0.00000 0.01891
vt 1.00000 0.01891
vt 0.90451 0.99278
vt 1.00000 0.98109
vt 0.22222 1.00000
vt 0.11111 1.00000
vt 0.77778 1.00000
vt 0.88889 1.00000
# 179 texture verticies
vn 0.64279 0.00000 -0.76604
vn 0.34202 0.00000 -0.93969
vn 0.00000 0.00000 -1.00000
vn 0.34202 0.00000 -0.93969
vn 0.98481 0.00000 -0.17365
vn 0.98481 0.00000 0.17365
vn 0.86602 0.00000 -0.50000
vn 0.64279 0.00000 0.76604
vn 0.34202 0.00000 0.93969
vn 0.86602 0.00000 0.50000
vn 0.00000 0.00000 1.00000
vn 0.64279 0.00000 0.76604
vn 0.34202 0.00000 0.93969
vn 0.00000 0.00000 1.00000
vn 0.34202 0.00000 0.93969
vn 0.98481 0.00000 0.17365
vn 0.98481 0.00000 -0.17365
vn 0.86602 0.00000 0.50000
vn 0.64279 0.00000 -0.76604
vn 0.34202 0.00000 -0.93969
vn 0.86602 0.00000 -0.50000
vn 0.00000 0.00000 -1.00000
vn 1.00000 0.00000 -0.00000
vn 1.00000 0.00000 0.00000
vn 0.96593 0.00000 0.25882
vn 0.86602 0.00000 0.50000
vn 0.96593 0.00000 0.25882
vn 0.70711 0.00000 0.70711
vn 0.50000 0.00000 0.86603
vn 0.25882 0.00000 0.96593
vn 0.50000 0.00000 0.86603
vn 0.00000 0.00000 1.00000
vn 0.00000 0.00000 1.00000
vn 0.96593 0.00000 -0.25882
vn 0.86602 0.00000 -0.50000
vn 0.70711 0.00000 -0.70711
vn 0.50000 0.00000 -0.86603
vn 0.70711 0.00000 -0.70711
vn 0.25882 0.00000 -0.96593
vn 0.50000 0.00000 -0.86603
vn 0.00000 0.00000 -1.00000
vn 0.00000 0.00000 -1.00000
vn -0.25882 0.00000 0.96593
vn -0.00000 0.00000 1.00000
vn -0.86602 0.00000 0.50000
vn -0.70711 0.00000 0.70711
vn -0.50000 0.00000 0.86603
vn -0.99031 -0.00000 -0.13889
vn -0.96593 -0.00000 -0.25882
vn -0.96593 0.00000 0.25882
vn -0.70711 -0.00000 -0.70711
vn -0.50000 -0.00000 -0.86603
vn -0.86602 -0.00000 -0.50000
vn -0.50000 -0.00000 -0.86603
vn -0.25882 -0.00000 -0.96593
vn -0.00000 -0.00000 -1.00000
vn -0.99907 -0.00000 -0.04303
vn -1.00000 -0.00000 -0.00000
vn -0.99908 0.00000 0.04286
vn -0.99907 0.00000 0.04303
vn -0.99908 -0.00000 -0.04286
vn -0.99031 0.00000 0.13889
vn -0.99368 0.00000 0.11229
vn -0.99367 -0.00000 -0.11238
vn -0.99368 -0.00000 -0.11229
vn -0.99367 0.00000 0.11238
vn 0.00000 1.00000 0.00000
vn -0.00000 -1.00000 -0.00000
vn -0.98481 0.00000 0.17365
vn -0.98481 -0.00000 -0.17365
vn -0.86602 0.00000 0.50000
vn -0.64279 0.00000 0.76604
vn -0.34202 0.00000 0.93969
vn -0.00000 0.00000 1.00000
vn -0.00000 0.00000 1.00000
vn -0.98481 -0.00000 -0.17365
vn -0.86602 -0.00000 -0.50000
vn -0.64279 -0.00000 -0.76604
vn -0.34202 -0.00000 -0.93969
vn -0.00000 -0.00000 -1.00000
vn -0.00000 -0.00000 -1.00000
vn 0.00000 -0.95120 0.30856
vn 0.00000 -0.95107 0.30899
vn -0.00000 -0.95081 -0.30978
vn 0.00000 -0.58776 0.80904
vn 0.00000 -0.58846 0.80853
vn 0.00000 0.00003 1.00000
vn 0.00000 0.00003 1.00000
vn -0.00000 -0.95107 -0.30899
vn -0.00000 -0.58776 -0.80904
vn -0.00000 -0.58757 -0.80918
vn 0.00000 0.00003 -1.00000
vn 0.00000 0.00003 -1.00000
vn 0.00000 0.00000 -1.00000
vn 0.00000 0.95120 -0.30856
vn 0.00000 0.95107 -0.30899
vn 0.00000 0.95081 0.30978
vn 0.00000 0.58776 -0.80904
vn 0.00000 0.58846 -0.80853
vn -0.00000 -0.00003 -1.00000
vn -0.00000 -0.00003 -1.00000
vn 0.00000 0.95107 0.30899
vn 0.00000 0.58776 0.80904
vn 0.00000 0.58757 0.80918
vn 0.00000 -0.00003 1.00000
vn 0.00000 0.00000 1.00000
vn -1.00000 -0.00000 -0.00000
vn -0.98481 0.00000 -0.17365
vn -0.98481 0.00000 0.17365
vn -0.86602 0.00000 -0.50000
vn -0.34202 0.00000 -0.93969
vn -0.00000 0.00000 -1.00000
vn -0.00000 0.00000 -1.00000
vn -0.98481 0.00000 0.17365
vn -0.86602 0.00000 0.50000
vn -0.34202 0.00000 0.93969
vn -0.00000 0.00000 1.00000
vn -0.00000 0.00000 1.00000
# 118 normals
usemtl Explorer_Default
f  1/1/1 3/2/2 2/3/1
f  4/4/3 6/5/4 5/6/3
f  7/7/5 9/8/6 8/9/6
f  10/10/5 12/11/7 11/12/7
f  13/13/8 15/14/8 14/15/9
f  13/13/8 17/16/10 16/17/10
f  18/18/9 19/19/11 14/15/9
f  14/15/9 15/14/8 18/18/9
f  16/17/10 17/16/10 9/8/6
f  18/18/9 20/20/11 19/19/11
f  16/17/10 15/14/8 13/13/8
f  7/7/5 8/9/6 10/10/5
f  9/8/6 17/16/10 8/9/6
f  11/12/7 12/11/7 2/3/1
f  7/7/5 10/10/5 11/12/7
f  1/1/1 6/5/4 3/2/2
f  12/11/7 1/1/1 2/3/1
f  4/4/3 3/2/2 6/5/4
f  21/21/12 23/2/13 22/3/12
f  24/4/14 26/22/15 25/23/14
f  27/7/16 29/8/17 28/24/17
f  30/25/16 32/26/18 31/12/18
f  33/27/19 35/14/19 34/28/20
f  33/27/19 37/29/21 36/17/21
f  38/18/20 39/30/22 34/28/20
f  34/28/20 35/14/19 38/18/20
f  36/17/21 37/29/21 29/8/17
f  38/18/20 40/20/22 39/30/22
f  36/17/21 35/14/19 33/27/19
f  27/7/16 28/24/17 30/25/16
f  29/8/17 37/29/21 28/24/17
f  31/12/18 32/26/18 22/3/12
f  27/7/16 30/25/16 31/12/18
f  21/21/12 26/22/15 23/2/13
f  32/26/18 21/21/12 22/3/12
f  24/4/14 23/2/13 26/22/15
f  41/31/23 43/32/24 42/33/25
f  44/34/26 45/35/27 42/33/25
f  41/31/23 42/33/25 45/35/27
f  44/34/26 47/36/28 46/37/26
f  46/37/26 45/35/27 44/34/26
f  48/38/28 47/36/28 49/39/29
f  47/36/28 48/38/28 46/37/26
f  50/40/30 51/41/31 49/39/29
f  48/38/28 49/39/29 51/41/31
f  50/40/30 53/4/32 52/42/30
f  52/42/30 51/41/31 50/40/30
f  53/4/32 54/43/33 52/42/30
f  55/44/34 43/32/24 41/31/23
f  55/44/34 57/16/35 56/45/34
f  56/45/34 43/32/24 55/44/34
f  58/17/35 57/16/35 59/46/36
f  57/16/35 58/17/35 56/45/34
f  60/47/37 61/48/38 59/46/36
f  58/17/35 59/46/36 61/48/38
f  60/47/37 63/49/39 62/50/40
f  62/50/40 61/48/38 60/47/37
f  64/51/39 63/49/39 65/19/41
f  63/49/39 64/51/39 62/50/40
f  64/51/39 65/19/41 66/52/42
f  67/53/43 54/19/44 53/20/44
f  68/17/45 70/54/46 69/55/46
f  71/56/47 73/57/47 72/58/43
f  74/59/48 76/60/48 75/61/49
f  77/16/45 79/45/50 78/44/50
f  80/62/51 82/63/52 81/64/51
f  83/12/53 85/11/53 84/65/49
f  86/41/54 82/63/52 87/40/55
f  82/63/52 86/41/54 81/64/51
f  66/4/56 88/42/55 87/40/55
f  86/41/54 87/40/55 88/42/55
f  65/6/56 88/42/55 66/4/56
f  83/12/53 80/62/51 85/11/53
f  80/62/51 81/64/51 85/11/53
f  89/66/57 91/31/58 90/67/59
f  75/61/49 83/12/53 84/65/49
f  92/68/60 94/69/58 93/70/61
f  77/16/45 70/54/46 68/17/45
f  77/16/45 68/17/45 79/45/50
f  69/55/46 73/57/47 71/56/47
f  70/54/46 73/57/47 69/55/46
f  67/53/43 72/58/43 54/19/44
f  71/56/47 72/58/43 67/53/43
f  95/71/62 78/44/50 79/45/50
f  91/31/58 96/72/63 90/67/59
f  91/31/58 78/44/50 96/72/63
f  78/44/50 97/73/62 96/72/63
f  84/65/49 91/31/58 98/74/64
f  91/31/58 89/66/57 98/74/64
f  93/70/61 94/69/58 99/75/65
f  74/59/48 84/65/49 98/74/64
f  75/61/49 84/65/49 74/59/48
f  94/69/58 75/61/49 99/75/65
f  75/61/49 76/60/48 99/75/65
f  79/45/50 94/69/58 100/76/66
f  94/69/58 92/68/60 100/76/66
f  78/44/50 95/71/62 97/73/62
f  79/45/50 100/76/66 95/71/62
f  94/32/67 8/77/67 75/78/67
f  101/79/67 64/80/67 19/81/67
f  75/78/67 17/82/67 83/83/67
f  8/77/67 94/32/67 10/84/67
f  12/85/67 10/84/67 79/86/67
f  12/85/67 68/87/67 69/88/67
f  80/89/67 17/82/67 13/90/67
f  71/91/67 67/92/67 6/93/67
f  87/94/67 82/95/67 14/96/67
f  102/97/67 49/98/67 103/99/67
f  61/100/67 62/101/67 104/102/67
f  105/103/67 43/104/67 106/105/67
f  107/106/67 103/99/67 47/107/67
f  107/106/67 42/108/67 105/103/67
f  58/109/67 61/100/67 108/110/67
f  106/105/67 56/111/67 108/110/67
f  101/79/67 104/102/67 62/101/67
f  5/112/67 53/113/67 50/114/67
f  66/115/67 87/94/67 19/81/67
f  1/116/67 71/91/67 6/93/67
f  13/90/67 14/96/67 82/95/67
f  105/103/67 42/108/67 43/104/67
f  67/92/67 5/112/67 6/93/67
f  5/112/67 67/92/67 53/113/67
f  1/116/67 12/85/67 69/88/67
f  1/116/67 69/88/67 71/91/67
f  68/87/67 12/85/67 79/86/67
f  79/86/67 10/84/67 94/32/67
f  8/77/67 17/82/67 75/78/67
f  83/83/67 17/82/67 80/89/67
f  80/89/67 13/90/67 82/95/67
f  14/96/67 19/81/67 87/94/67
f  66/115/67 19/81/67 64/80/67
f  64/80/67 101/79/67 62/101/67
f  104/102/67 108/110/67 61/100/67
f  58/109/67 108/110/67 56/111/67
f  56/111/67 106/105/67 43/104/67
f  107/106/67 44/117/67 42/108/67
f  47/107/67 103/99/67 49/98/67
f  44/117/67 107/106/67 47/107/67
f  49/98/67 102/97/67 50/114/67
f  5/112/67 50/114/67 102/97/67
f  109/97/68 51/98/68 52/114/68
f  41/104/68 111/103/68 110/105/68
f  41/104/68 45/108/68 111/103/68
f  55/111/68 110/105/68 112/110/68
f  45/108/68 46/117/68 113/106/68
f  112/110/68 59/100/68 57/109/68
f  48/107/68 114/99/68 113/106/68
f  70/88/68 33/116/68 73/91/68
f  60/101/68 115/79/68 63/80/68
f  86/95/68 26/96/68 21/90/68
f  30/77/68 28/84/68 91/32/68
f  21/90/68 32/82/68 81/89/68
f  84/78/68 32/82/68 30/77/68
f  78/86/68 28/84/68 37/85/68
f  88/94/68 65/115/68 25/81/68
f  70/88/68 77/87/68 37/85/68
f  25/81/68 65/115/68 63/80/68
f  60/101/68 116/102/68 115/79/68
f  39/112/68 52/114/68 54/113/68
f  114/99/68 51/98/68 109/97/68
f  116/102/68 60/101/68 59/100/68
f  73/91/68 33/116/68 34/93/68
f  63/80/68 115/79/68 25/81/68
f  84/78/68 30/77/68 91/32/68
f  116/102/68 59/100/68 112/110/68
f  57/109/68 55/111/68 112/110/68
f  55/111/68 41/104/68 110/105/68
f  111/103/68 45/108/68 113/106/68
f  46/117/68 48/107/68 113/106/68
f  48/107/68 51/98/68 114/99/68
f  109/97/68 52/114/68 39/112/68
f  54/113/68 72/92/68 39/112/68
f  72/92/68 73/91/68 34/93/68
f  39/112/68 72/92/68 34/93/68
f  33/116/68 70/88/68 37/85/68
f  77/87/68 78/86/68 37/85/68
f  78/86/68 91/32/68 28/84/68
f  32/82/68 84/78/68 85/83/68
f  81/89/68 86/95/68 21/90/68
f  85/83/68 81/89/68 32/82/68
f  86/95/68 88/94/68 26/96/68
f  25/81/68 26/96/68 88/94/68
f  117/8/69 110/24/69 118/118/70
f  112/29/71 117/8/69 119/17/71
f  117/8/69 112/29/71 110/24/69
f  119/17/71 120/119/72 116/120/72
f  116/120/72 112/29/71 119/17/71
f  121/121/73 115/122/73 120/119/72
f  116/120/72 120/119/72 115/122/73
f  25/30/74 121/121/73 24/123/75
f  121/121/73 25/30/74 115/122/73
f  110/24/69 111/25/76 118/118/70
f  113/124/77 122/34/77 111/25/76
f  118/118/70 111/25/76 122/34/77
f  123/125/78 113/124/77 114/126/78
f  113/124/77 123/125/78 122/34/77
f  114/126/78 109/127/79 124/128/79
f  124/128/79 123/125/78 114/126/78
f  124/128/79 109/127/79 40/4/80
f  109/127/79 39/129/81 40/4/80
f  122/130/68 123/131/68 23/132/68
f  117/133/68 121/134/68 120/135/68
f  120/135/68 119/136/68 117/133/68
f  121/134/68 118/137/68 24/113/68
f  118/137/68 121/134/68 117/133/68
f  118/137/68 122/130/68 24/113/68
f  38/138/68 27/139/68 40/115/68
f  31/140/68 22/141/68 124/142/68
f  38/138/68 35/143/68 29/144/68
f  36/145/68 29/144/68 35/143/68
f  38/138/68 29/144/68 27/139/68
f  40/115/68 31/140/68 124/142/68
f  40/115/68 27/139/68 31/140/68
f  123/131/68 22/141/68 23/132/68
f  123/131/68 124/142/68 22/141/68
f  23/132/68 24/113/68 122/130/68
f  93/146/82 125/147/83 92/148/84
f  126/149/85 93/146/82 99/150/86
f  93/146/82 126/149/85 125/147/83
f  127/4/87 126/149/85 99/150/86
f  127/4/87 99/150/86 76/151/88
f  125/147/83 128/152/89 92/148/84
f  128/152/89 129/153/90 100/154/91
f  100/154/91 92/148/84 128/152/89
f  100/154/91 129/153/90 95/155/92
f  129/153/90 130/20/93 95/155/92
f  97/4/94 95/23/94 130/156/94
f  97/4/94 130/156/94 131/20/94
f  90/157/95 132/147/96 89/148/97
f  133/158/98 90/157/95 96/159/99
f  90/157/95 133/158/98 132/147/96
f  131/4/100 133/158/98 96/159/99
f  131/4/100 96/159/99 97/160/101
f  132/147/96 134/161/102 89/148/97
f  134/161/102 135/153/103 98/162/104
f  98/162/104 89/148/97 134/161/102
f  98/162/104 135/153/103 74/163/105
f  135/153/103 136/20/105 74/163/105
f  76/30/106 136/4/106 127/23/106
f  136/4/106 76/30/106 74/20/106
f  132/164/107 129/165/107 128/166/107
f  125/167/107 135/168/107 134/169/107
f  130/170/107 133/171/107 131/172/107
f  136/173/107 126/174/107 127/175/107
f  126/174/107 136/173/107 135/168/107
f  126/174/107 135/168/107 125/167/107
f  134/169/107 128/166/107 125/167/107
f  129/165/107 132/164/107 133/171/107
f  128/166/107 134/169/107 132/164/107
f  133/171/107 130/170/107 129/165/107
f  137/8/108 105/9/108 138/118/109
f  107/16/110 137/8/108 139/17/110
f  137/8/108 107/16/110 105/9/108
f  139/17/110 140/119/78 103/176/78
f  103/176/78 107/16/110 139/17/110
f  141/121/111 102/177/111 140/119/78
f  103/176/78 140/119/78 102/177/111
f  5/19/112 141/121/111 4/123/113
f  141/121/111 5/19/112 102/177/111
f  105/9/108 106/10/114 138/118/109
f  108/37/115 142/34/115 106/10/114
f  138/118/109 106/10/114 142/34/115
f  143/125/72 108/37/115 104/178/72
f  108/37/115 143/125/72 142/34/115
f  104/178/72 101/179/116 144/128/116
f  144/128/116 143/125/72 104/178/72
f  144/128/116 101/179/116 20/4/117
f  101/179/116 19/43/118 20/4/117
f  142/130/67 143/131/67 3/132/67
f  137/133/67 141/134/67 140/135/67
f  140/135/67 139/136/67 137/133/67
f  141/134/67 138/137/67 4/113/67
f  138/137/67 141/134/67 137/133/67
f  138/137/67 142/130/67 4/113/67
f  18/138/67 7/139/67 20/115/67
f  11/140/67 2/141/67 144/142/67
f  18/138/67 15/143/67 9/144/67
f  16/145/67 9/144/67 15/143/67
f  18/138/67 9/144/67 7/139/67
f  20/115/67 11/140/67 144/142/67
f  20/115/67 7/139/67 11/140/67
f  143/131/67 2/141/67 3/132/67
f  143/131/67 144/142/67 2/141/67
f  3/132/67 4/113/67 142/130/67
