# 
# Wavefront OBJ file
# Converted by the DEEP Exploration Deep Exploration 6.3 6.3.3.8068
# Right Hemisphere, LTD
# http://www.righthemisphere.com/
# 
mtllib 称重传感器插件2.mtl
# object 3???′??D?÷2??t2
g ________D___2__t2
v 7.60845 -8.00000 -2.47214
v 8.00000 0.00000 -0.00000
v 8.00000 -8.00000 -0.00000
v 6.47214 -8.00000 -4.70228
v 7.60845 0.00000 -2.47214
v 6.47214 0.00000 -4.70228
v 4.70228 -8.00000 -6.47214
v 2.47214 -8.00000 -7.60845
v 4.70228 0.00000 -6.47214
v -0.00000 -8.00000 -7.99999
v 2.47214 0.00000 -7.60845
v -0.00000 0.00000 -7.99999
v 7.60845 0.00000 2.47214
v 7.60845 -8.00000 2.47214
v 6.47214 0.00000 4.70228
v 4.70228 0.00000 6.47214
v 6.47214 -8.00000 4.70228
v 2.47214 0.00000 7.60845
v 4.70228 -8.00000 6.47214
v 2.47214 -8.00000 7.60845
v -0.00000 -0.00000 7.99999
v -0.00000 -8.00000 7.99999
v 3.61417 27.70711 -0.82491
v 2.89833 27.70711 -2.31136
v 2.92618 28.00000 -0.64286
v 0.00000 27.70711 3.70710
v 1.60845 27.70711 3.33997
v -0.00000 28.00000 3.00000
v 2.35538 28.00000 -1.85475
v 1.60845 27.70711 -3.33997
v 2.91299 28.00000 0.69207
v 1.31032 28.00000 -2.69812
v 0.00000 27.70711 -3.70710
v -0.00000 28.00000 -3.00000
v 3.61417 27.70711 0.82491
v -0.00000 27.00000 -4.00000
v 2.32535 28.00000 1.88477
v 2.89833 27.70711 2.31136
v 1.31032 28.00000 2.69812
v -0.00000 27.00000 4.00000
v 1.73553 27.00000 3.60386
v 3.12732 27.00000 2.49397
v 3.89972 27.00000 0.89008
v 3.89972 27.00000 -0.89008
v 3.12732 27.00000 -2.49397
v 1.73553 27.00000 -3.60386
v 3.89971 4.00000 -0.89008
v 3.89971 4.00000 0.89008
v 3.12733 4.00000 2.49396
v 1.73553 4.00000 3.60388
v -0.00000 4.00000 4.00000
v 3.12733 4.00000 -2.49396
v 1.73553 4.00000 -3.60388
v -0.00000 4.00000 -4.00000
v 10.88804 0.00000 1.56546
v 10.88804 0.00000 -1.56546
v 10.88804 4.00000 1.56546
v 10.00595 4.00000 4.56957
v 10.00595 0.00000 4.56957
v 8.31325 4.00000 7.20347
v 8.31325 0.00000 7.20347
v 5.94705 0.00000 9.25379
v 5.94705 4.00000 9.25379
v 3.09906 4.00000 10.55442
v 3.09906 0.00000 10.55442
v 0.00000 4.00000 11.00000
v 0.00000 -0.00000 11.00000
v 10.88804 4.00000 -1.56546
v 10.00595 0.00000 -4.56957
v 10.00595 4.00000 -4.56957
v 8.31325 4.00000 -7.20347
v 8.31325 0.00000 -7.20347
v 5.94705 0.00000 -9.25379
v 5.94705 4.00000 -9.25379
v 3.09906 0.00000 -10.55442
v 3.09906 4.00000 -10.55442
v 0.00000 -0.00000 -11.00000
v 0.00000 4.00000 -11.00000
v -3.09906 4.00000 10.55442
v -10.00595 4.00000 4.56957
v -8.31325 0.00000 7.20347
v -8.31325 4.00000 7.20347
v -5.94705 4.00000 9.25379
v -5.94705 0.00000 9.25379
v -3.09906 0.00000 10.55442
v -10.88804 0.00000 -1.56546
v -10.88804 4.00000 -1.56546
v -10.00595 4.00000 -4.56957
v -10.00595 0.00000 4.56957
v -10.88804 4.00000 1.56546
v -10.88804 0.00000 1.56546
v -8.31325 0.00000 -7.20347
v -5.94705 4.00000 -9.25379
v -5.94705 0.00000 -9.25379
v -8.31325 4.00000 -7.20347
v -10.00595 0.00000 -4.56957
v -3.09906 0.00000 -10.55442
v -3.09906 4.00000 -10.55442
v -3.89972 4.00000 -0.89008
v -3.89972 4.00000 0.89008
v -3.12732 4.00000 2.49397
v -3.12732 4.00000 -2.49397
v -1.73553 4.00000 -3.60386
v -1.73553 4.00000 3.60386
v -2.47213 0.00000 7.60843
v -6.47213 0.00000 4.70230
v -4.70228 0.00000 6.47214
v -2.47213 0.00000 -7.60843
v -4.70228 0.00000 -6.47214
v -7.99995 0.00000 -0.00000
v -7.60850 -0.00000 2.47213
v -7.60850 0.00000 -2.47213
v -6.47213 0.00000 -4.70230
v -1.73553 27.00000 3.60386
v -3.89972 27.00000 -0.89008
v -3.89972 27.00000 0.89008
v -3.12732 27.00000 2.49397
v -1.73553 27.00000 -3.60386
v -3.12732 27.00000 -2.49397
v -2.92616 28.00000 -0.64286
v -2.91299 28.00000 0.69207
v -2.32536 28.00000 1.88477
v -1.31032 28.00000 2.69811
v -2.35538 28.00000 -1.85474
v -1.31032 28.00000 -2.69811
v -1.60845 27.70711 -3.33997
v -2.89833 27.70711 -2.31136
v -3.61417 27.70711 -0.82491
v -1.60845 27.70711 3.33997
v -2.89833 27.70711 2.31136
v -3.61417 27.70711 0.82491
v -2.47214 -8.00000 -7.60845
v -7.60845 -8.00000 -2.47214
v -6.47214 -8.00000 -4.70228
v -4.70228 -8.00000 -6.47214
v -7.60845 -8.00000 2.47214
v -6.47214 -8.00000 4.70228
v -8.00000 -8.00000 0.00000
v -4.70228 -8.00000 6.47214
v -2.47214 -8.00000 7.60845
# 140 verticies
vt 0.60000 0.00000
vt 0.50000 1.00000
vt 0.50000 0.00000
vt 0.70000 0.00000
vt 0.60000 1.00000
vt 0.70000 1.00000
vt 0.80000 0.00000
vt 0.90000 0.00000
vt 0.80000 1.00000
vt 1.00000 0.00000
vt 0.90000 1.00000
vt 1.00000 1.00000
vt 0.40000 1.00000
vt 0.40000 0.00000
vt 0.30000 1.00000
vt 0.20000 1.00000
vt 0.30000 0.00000
vt 0.10000 1.00000
vt 0.20000 0.00000
vt 0.10000 0.00000
vt 0.00000 1.00000
vt 0.00000 0.00000
vt 0.57143 0.50000
vt 0.71429 0.50000
vt 0.57143 1.00000
vt 0.00000 0.50000
vt 0.14286 0.50000
vt 0.00000 1.00000
vt 0.71429 1.00000
vt 0.85714 0.50000
vt 0.42857 1.00000
vt 0.85714 1.00000
vt 1.00000 0.50000
vt 0.42857 0.50000
vt 0.28571 1.00000
vt 0.28571 0.50000
vt 0.14286 1.00000
vt 0.00000 0.00000
vt 0.14286 0.00000
vt 0.28571 0.00000
vt 0.42857 0.00000
vt 0.57143 0.00000
vt 0.71429 0.00000
vt 0.85714 0.00000
vt 0.42857 1.00000
vt 0.57143 0.00000
vt 0.71429 0.00000
vt 0.85714 0.00000
vt 0.42857 0.00000
vt 0.28571 1.00000
vt 0.28571 0.00000
vt 0.14286 1.00000
vt 0.14286 0.00000
vt 0.00000 0.00000
vt 0.54545 1.00000
vt 0.45455 1.00000
vt 0.54545 0.00000
vt 0.63636 0.00000
vt 0.63636 1.00000
vt 0.72727 0.00000
vt 0.72727 1.00000
vt 0.81818 1.00000
vt 0.81818 0.00000
vt 0.90909 0.00000
vt 0.90909 1.00000
vt 1.00000 1.00000
vt 0.45455 0.00000
vt 0.36364 1.00000
vt 0.36364 0.00000
vt 0.27273 0.00000
vt 0.27273 1.00000
vt 0.18182 1.00000
vt 0.18182 0.00000
vt 0.09091 1.00000
vt 0.09091 0.00000
vt 0.00000 1.00000
vt 0.09091 0.00000
vt 0.36364 0.00000
vt 0.27273 1.00000
vt 0.18182 1.00000
vt 0.09091 1.00000
vt 0.54545 1.00000
vt 0.54545 0.00000
vt 0.36364 1.00000
vt 0.45455 0.00000
vt 0.45455 1.00000
vt 0.81818 0.00000
vt 0.72727 0.00000
vt 0.90909 1.00000
vt 1.00000 1.00000
vt 0.45954 0.32092
vt 0.57116 0.00000
vt 0.54046 0.32092
vt 0.07937 0.77310
vt 0.33619 0.57970
vt 0.38664 0.64361
vt 0.70771 0.04051
vt 0.61336 0.35639
vt 0.29229 0.04051
vt 0.42884 0.00000
vt 0.38664 0.35639
vt 0.17257 0.11824
vt 0.07937 0.22690
vt 0.33619 0.42030
vt 0.02025 0.35769
vt 0.82743 0.11824
vt 0.92063 0.22690
vt 0.02025 0.64231
vt 0.31818 0.50000
vt 0.17257 0.88176
vt 0.92063 0.77310
vt 0.61336 0.64361
vt 0.66381 0.57970
vt 0.29229 0.95949
vt 0.45954 0.67908
vt 0.42884 1.00000
vt 0.54046 0.67908
vt 0.57116 1.00000
vt 0.70771 0.95949
vt 0.82743 0.88176
vt 0.97975 0.64231
vt 0.00000 0.50000
vt 0.68182 0.50000
vt 0.66381 0.42030
vt 0.97975 0.35769
vt 0.15416 0.61353
vt 0.20581 0.71594
vt 0.61237 0.84940
vt 0.50000 0.86738
vt 0.38763 0.84940
vt 0.71374 0.79721
vt 0.28626 0.79721
vt 0.79419 0.71594
vt 0.84584 0.61353
vt 0.84584 0.38647
vt 0.86364 0.50000
vt 0.71374 0.20279
vt 0.79419 0.28406
vt 0.15416 0.38647
vt 0.20581 0.28406
vt 0.50000 0.13262
vt 0.61237 0.15060
vt 0.38763 0.15060
vt 0.28626 0.20279
vt 0.13636 0.50000
vt 0.14286 0.00000
vt 0.57143 0.00000
vt 0.42857 1.00000
vt 0.42857 0.00000
vt 0.28571 0.00000
vt 0.28571 1.00000
vt 0.14286 1.00000
vt 0.71429 1.00000
vt 0.85714 0.00000
vt 0.71429 0.00000
vt 0.05031 0.72390
vt 0.38465 0.00225
vt 0.60714 0.00000
vt 0.81413 0.89734
vt 0.61535 0.99775
vt 0.94969 0.72390
vt 0.19088 0.90247
vt 0.80912 0.09753
vt 0.94969 0.27610
vt 0.39286 1.00000
vt 0.18587 0.10266
vt 0.05031 0.27610
vt 0.14286 0.50000
vt 0.28571 0.50000
vt 0.28571 0.00000
vt 0.42857 0.50000
vt 0.00000 0.00000
vt 0.14286 0.00000
vt 0.71429 0.50000
vt 0.42857 0.00000
vt 0.57143 0.00000
vt 0.71429 0.00000
vt 0.85714 0.00000
vt 0.10000 0.00000
vt 0.40000 0.00000
vt 0.30000 1.00000
vt 0.30000 0.00000
vt 0.10000 1.00000
vt 0.70000 0.00000
vt 0.40000 1.00000
vt 0.50000 0.00000
vt 0.80000 1.00000
vt 0.80000 0.00000
vt 0.09549 0.20611
vt 0.20611 0.09549
vt 0.34549 0.02447
vt 0.90451 0.20611
vt 0.20611 0.90451
vt 0.09549 0.79389
vt 0.02447 0.34549
vt 0.79389 0.09549
vt 0.02447 0.65451
vt 0.65451 0.02447
vt 0.50000 1.00000
vt 0.34549 0.97553
vt 0.97553 0.34549
vt 0.97553 0.65451
vt 0.90451 0.79389
vt 0.65451 0.97553
vt 0.79389 0.90451
# 205 texture verticies
vn 0.95107 0.00000 -0.30899
vn 1.00000 0.00000 0.00000
vn 1.00000 0.00000 -0.00000
vn 0.80903 0.00000 -0.58777
vn 0.95107 0.00000 -0.30899
vn 0.80903 0.00000 -0.58777
vn 0.58776 0.00000 -0.80904
vn 0.30904 0.00000 -0.95105
vn -0.00003 0.00000 -1.00000
vn 0.95107 0.00000 0.30899
vn 0.80903 0.00000 0.58777
vn 0.58776 0.00000 0.80904
vn 0.80903 0.00000 0.58777
vn 0.30904 0.00000 0.95105
vn 0.30904 0.00000 0.95105
vn -0.00003 0.00000 1.00000
vn -0.00003 0.00000 1.00000
vn 0.68939 0.70711 -0.15731
vn 0.55285 0.70711 -0.44086
vn -0.00001 1.00000 0.00000
vn -0.00002 0.70711 0.70711
vn 0.30680 0.70711 0.63708
vn 0.00000 1.00000 -0.00001
vn -0.00000 1.00000 0.00000
vn 0.30680 0.70711 -0.63708
vn -0.00001 1.00000 -0.00000
vn -0.00000 1.00000 0.00000
vn -0.00002 0.70711 -0.70711
vn 0.00000 1.00000 0.00001
vn 0.68939 0.70711 0.15731
vn -0.00003 -0.00001 -1.00000
vn -0.00000 1.00000 -0.00000
vn 0.55285 0.70711 0.44086
vn -0.00000 1.00000 -0.00000
vn -0.00003 -0.00001 1.00000
vn 0.43388 -0.00001 0.90097
vn 0.78185 -0.00001 0.62347
vn 0.97494 -0.00001 0.22247
vn 0.97494 -0.00001 -0.22247
vn 0.78185 -0.00001 -0.62347
vn 0.43388 -0.00001 -0.90097
vn 0.97494 0.00000 -0.22247
vn 0.97494 0.00000 0.22247
vn 0.97494 0.00000 0.22247
vn 0.78185 0.00000 0.62347
vn 0.43388 0.00000 0.90097
vn 0.43388 0.00000 0.90097
vn -0.00003 0.00000 1.00000
vn 0.78185 0.00000 -0.62347
vn 0.43388 0.00000 -0.90097
vn -0.00003 -0.00000 -1.00000
vn -0.00003 -0.00000 -1.00000
vn 0.98982 0.00000 0.14232
vn 0.98982 0.00000 -0.14232
vn 0.90963 0.00000 0.41541
vn 0.90963 0.00000 0.41541
vn 0.75575 0.00000 0.65486
vn 0.75575 0.00000 0.65486
vn 0.54064 0.00000 0.84125
vn 0.54064 0.00000 0.84125
vn 0.28173 0.00000 0.95949
vn 0.28173 0.00000 0.95949
vn 0.00000 0.00000 1.00000
vn 0.00000 0.00000 1.00000
vn 0.98982 0.00000 -0.14232
vn 0.90963 0.00000 -0.41541
vn 0.90963 0.00000 -0.41541
vn 0.75575 0.00000 -0.65486
vn 0.75575 0.00000 -0.65486
vn 0.54064 0.00000 -0.84125
vn 0.54064 0.00000 -0.84125
vn 0.28173 0.00000 -0.95949
vn 0.28173 0.00000 -0.95949
vn 0.00000 0.00000 -1.00000
vn 0.00000 0.00000 -1.00000
vn -0.28173 0.00000 0.95949
vn -0.00000 0.00000 1.00000
vn -0.90963 0.00000 0.41541
vn -0.75575 0.00000 0.65486
vn -0.54064 0.00000 0.84125
vn -0.54064 0.00000 0.84125
vn -0.98982 -0.00000 -0.14232
vn -0.90963 -0.00000 -0.41541
vn -0.98982 0.00000 0.14232
vn -0.75575 -0.00000 -0.65486
vn -0.54064 -0.00000 -0.84125
vn -0.28173 -0.00000 -0.95949
vn -0.28173 -0.00000 -0.95949
vn -0.00000 -0.00000 -1.00000
vn -0.00000 -0.00000 -1.00000
vn 0.00000 1.00000 0.00000
vn -0.00000 -1.00000 -0.00000
vn -0.43388 0.00000 0.90097
vn 0.00003 0.00000 1.00000
vn -0.97494 -0.00000 -0.22247
vn -0.97494 0.00000 0.22247
vn -0.78185 0.00000 0.62347
vn -0.43388 -0.00000 -0.90097
vn -0.78185 -0.00000 -0.62347
vn -0.78185 -0.00000 -0.62347
vn 0.00003 0.00000 -1.00000
vn 0.00000 1.00000 0.00000
vn -0.30680 0.70711 -0.63708
vn -0.55285 0.70711 -0.44086
vn -0.78185 -0.00001 -0.62347
vn 0.00001 1.00000 0.00000
vn 0.00000 1.00000 0.00000
vn -0.68939 0.70711 -0.15731
vn 0.00002 0.70711 -0.70711
vn 0.00003 -0.00001 -1.00000
vn -0.43388 -0.00001 -0.90097
vn -0.30680 0.70711 0.63708
vn 0.00000 1.00000 -0.00000
vn 0.00000 1.00000 -0.00000
vn -0.55285 0.70711 0.44086
vn 0.00001 1.00000 -0.00000
vn -0.68939 0.70711 0.15731
vn 0.00003 -0.00001 1.00000
vn 0.00002 0.70711 0.70711
vn -0.00000 1.00000 -0.00001
vn -0.00000 1.00000 0.00001
vn -0.97494 -0.00001 -0.22247
vn -0.97494 -0.00001 0.22247
vn -0.78185 -0.00001 0.62347
vn -0.43388 -0.00001 0.90097
vn -0.30904 0.00000 -0.95105
vn 0.00003 0.00000 -1.00000
vn -0.95107 0.00000 -0.30899
vn -0.80903 0.00000 -0.58777
vn -0.80903 0.00000 -0.58777
vn -0.58776 0.00000 -0.80904
vn -0.95107 0.00000 0.30899
vn -0.80903 0.00000 0.58777
vn -1.00000 0.00000 0.00000
vn -0.58776 0.00000 0.80904
vn -0.30904 0.00000 0.95105
vn -0.80903 0.00000 0.58777
vn 0.00003 0.00000 1.00000
# 138 normals
usemtl Explorer_Default
f  1/1/1 2/2/2 3/3/3
f  1/1/1 4/4/4 5/5/5
f  5/5/5 2/2/2 1/1/1
f  6/6/6 4/4/4 7/7/7
f  4/4/4 6/6/6 5/5/5
f  8/8/8 9/9/7 7/7/7
f  6/6/6 7/7/7 9/9/7
f  8/8/8 10/10/9 11/11/8
f  11/11/8 9/9/7 8/8/8
f  10/10/9 12/12/9 11/11/8
f  13/13/10 3/3/3 2/2/2
f  14/14/10 13/13/10 15/15/11
f  13/13/10 14/14/10 3/3/3
f  16/16/12 17/17/13 15/15/11
f  14/14/10 15/15/11 17/17/13
f  16/16/12 18/18/14 19/19/12
f  19/19/12 17/17/13 16/16/12
f  20/20/15 18/18/14 21/21/16
f  18/18/14 20/20/15 19/19/12
f  20/20/15 21/21/16 22/22/17
f  23/23/18 24/24/19 25/25/20
f  26/26/21 27/27/22 28/28/23
f  29/29/24 24/24/19 30/30/25
f  29/29/24 25/25/20 24/24/19
f  31/31/26 23/23/18 25/25/20
f  30/30/25 32/32/27 29/29/24
f  33/33/28 34/12/29 32/32/27
f  31/31/26 35/34/30 23/23/18
f  36/10/31 33/33/28 30/30/25
f  37/35/32 35/34/30 31/31/26
f  38/36/33 37/35/32 39/37/34
f  37/35/32 38/36/33 35/34/30
f  28/28/23 27/27/22 39/37/34
f  38/36/33 39/37/34 27/27/22
f  40/38/35 41/39/36 26/26/21
f  26/26/21 41/39/36 27/27/22
f  41/39/36 42/40/37 27/27/22
f  27/27/22 42/40/37 38/36/33
f  42/40/37 43/41/38 38/36/33
f  38/36/33 43/41/38 35/34/30
f  43/41/38 44/42/39 35/34/30
f  35/34/30 44/42/39 23/23/18
f  44/42/39 45/43/40 23/23/18
f  23/23/18 45/43/40 24/24/19
f  45/43/40 46/44/41 24/24/19
f  24/24/19 46/44/41 30/30/25
f  36/10/31 30/30/25 46/44/41
f  33/33/28 32/32/27 30/30/25
f  47/45/42 43/46/43 48/25/44
f  49/29/45 48/25/44 42/47/45
f  43/46/43 42/47/45 48/25/44
f  41/48/46 50/32/47 49/29/45
f  49/29/45 42/47/45 41/48/46
f  40/10/48 50/32/47 41/48/46
f  40/10/48 51/12/48 50/32/47
f  43/46/43 47/45/42 44/49/42
f  52/50/49 45/51/49 44/49/42
f  44/49/42 47/45/42 52/50/49
f  45/51/49 53/52/50 46/53/50
f  53/52/50 45/51/49 52/50/49
f  53/52/50 54/21/51 46/53/50
f  46/53/50 54/21/51 36/54/52
f  55/55/53 56/56/54 57/57/53
f  58/58/55 59/59/56 55/55/53
f  55/55/53 57/57/53 58/58/55
f  59/59/56 60/60/57 61/61/58
f  60/60/57 59/59/56 58/58/55
f  62/62/59 61/61/58 63/63/60
f  60/60/57 63/63/60 61/61/58
f  64/64/61 65/65/62 62/62/59
f  62/62/59 63/63/60 64/64/61
f  66/10/63 65/65/62 64/64/61
f  66/10/63 67/66/64 65/65/62
f  57/57/53 56/56/54 68/67/65
f  68/67/65 69/68/66 70/69/67
f  69/68/66 68/67/65 56/56/54
f  71/70/68 70/69/67 72/71/69
f  69/68/66 72/71/69 70/69/67
f  73/72/70 74/73/71 71/70/68
f  71/70/68 72/71/69 73/72/70
f  74/73/71 75/74/72 76/75/73
f  75/74/72 74/73/71 73/72/70
f  75/74/72 77/76/74 76/75/73
f  76/75/73 77/76/74 78/38/75
f  79/77/76 67/21/77 66/38/77
f  80/78/78 81/79/79 82/70/79
f  83/73/80 84/80/81 85/81/76
f  86/82/82 87/83/82 88/58/83
f  89/84/78 90/85/84 91/86/84
f  92/61/85 93/87/86 94/62/86
f  95/88/85 92/61/85 96/59/83
f  97/89/87 94/62/86 98/64/88
f  93/87/86 98/64/88 94/62/86
f  78/10/89 77/90/90 97/89/87
f  97/89/87 98/64/88 78/10/89
f  88/58/83 95/88/85 96/59/83
f  95/88/85 93/87/86 92/61/85
f  91/86/84 87/83/82 86/82/82
f  86/82/82 88/58/83 96/59/83
f  89/84/78 80/78/78 90/85/84
f  91/86/84 90/85/84 87/83/82
f  81/79/79 84/80/81 82/70/79
f  89/84/78 81/79/79 80/78/78
f  83/73/80 85/81/76 79/77/76
f  82/70/79 84/80/81 83/73/80
f  67/21/77 79/77/76 85/81/76
f  99/91/91 90/92/91 100/93/91
f  74/94/91 53/95/91 52/96/91
f  100/93/91 80/97/91 101/98/91
f  99/91/91 88/99/91 87/100/91
f  88/99/91 102/101/91 95/102/91
f  93/103/91 103/104/91 98/105/91
f  82/106/91 83/107/91 101/98/91
f  76/108/91 54/109/91 53/95/91
f  71/110/91 74/94/91 52/96/91
f  63/111/91 49/112/91 50/113/91
f  70/114/91 47/115/91 68/116/91
f  68/116/91 48/117/91 57/118/91
f  57/118/91 48/117/91 58/119/91
f  52/96/91 70/114/91 71/110/91
f  53/95/91 74/94/91 76/108/91
f  58/119/91 49/112/91 60/120/91
f  63/111/91 50/113/91 64/121/91
f  78/122/91 98/105/91 54/109/91
f  54/109/91 76/108/91 78/122/91
f  51/123/91 104/124/91 79/125/91
f  64/121/91 51/123/91 66/33/91
f  101/98/91 80/97/91 82/106/91
f  52/96/91 47/115/91 70/114/91
f  47/115/91 48/117/91 68/116/91
f  48/117/91 49/112/91 58/119/91
f  60/120/91 49/112/91 63/111/91
f  50/113/91 51/123/91 64/121/91
f  66/33/91 51/123/91 79/125/91
f  104/124/91 101/98/91 83/107/91
f  104/124/91 83/107/91 79/125/91
f  100/93/91 90/92/91 80/97/91
f  99/91/91 87/100/91 90/92/91
f  99/91/91 102/101/91 88/99/91
f  95/102/91 102/101/91 93/103/91
f  98/105/91 103/104/91 54/109/91
f  93/103/91 102/101/91 103/104/91
f  11/126/92 73/94/92 9/127/92
f  13/128/92 2/129/92 55/118/92
f  2/129/92 5/130/92 56/116/92
f  61/120/92 15/131/92 59/119/92
f  5/130/92 6/132/92 69/114/92
f  16/133/92 62/111/92 18/134/92
f  6/132/92 9/127/92 72/110/92
f  85/125/92 105/135/92 21/136/92
f  106/137/92 107/138/92 81/106/92
f  108/139/92 109/140/92 94/103/92
f  91/92/92 110/141/92 111/142/92
f  112/143/92 110/141/92 86/100/92
f  106/137/92 89/97/92 111/142/92
f  109/140/92 113/144/92 92/102/92
f  112/143/92 96/99/92 113/144/92
f  84/107/92 105/135/92 85/125/92
f  15/131/92 13/128/92 59/119/92
f  12/145/92 97/105/92 77/122/92
f  108/139/92 97/105/92 12/145/92
f  75/108/92 11/126/92 12/145/92
f  85/125/92 21/136/92 67/33/92
f  21/136/92 65/121/92 67/33/92
f  84/107/92 81/106/92 107/138/92
f  105/135/92 84/107/92 107/138/92
f  81/106/92 89/97/92 106/137/92
f  89/97/92 91/92/92 111/142/92
f  91/92/92 86/100/92 110/141/92
f  86/100/92 96/99/92 112/143/92
f  96/99/92 92/102/92 113/144/92
f  92/102/92 94/103/92 109/140/92
f  94/103/92 97/105/92 108/139/92
f  77/122/92 75/108/92 12/145/92
f  75/108/92 73/94/92 11/126/92
f  73/94/92 72/110/92 9/127/92
f  72/110/92 69/114/92 6/132/92
f  69/114/92 56/116/92 5/130/92
f  56/116/92 55/118/92 2/129/92
f  55/118/92 59/119/92 13/128/92
f  15/131/92 61/120/92 16/133/92
f  62/111/92 65/121/92 18/134/92
f  61/120/92 62/111/92 16/133/92
f  21/136/92 18/134/92 65/121/92
f  114/146/93 51/21/94 40/38/94
f  115/147/95 100/148/96 116/149/96
f  117/150/97 101/151/97 104/152/93
f  103/32/98 102/153/99 118/154/98
f  99/25/95 119/155/100 102/153/99
f  36/10/101 54/12/101 103/32/98
f  103/32/98 118/154/98 36/10/101
f  115/147/95 119/155/100 99/25/95
f  102/153/99 119/155/100 118/154/98
f  100/148/96 101/151/97 116/149/96
f  99/25/95 100/148/96 115/147/95
f  117/150/97 104/152/93 114/146/93
f  116/149/96 101/151/97 117/150/97
f  51/21/94 114/146/93 104/152/93
f  32/156/91 120/157/91 121/158/91
f  28/33/91 37/159/91 31/160/91
f  28/33/91 39/161/91 37/159/91
f  29/162/91 122/163/91 123/164/91
f  25/165/91 123/164/91 31/160/91
f  124/166/91 34/122/91 125/167/91
f  120/157/91 32/156/91 34/122/91
f  34/122/91 124/166/91 120/157/91
f  32/156/91 121/158/91 122/163/91
f  123/164/91 25/165/91 29/162/91
f  122/163/91 29/162/91 32/156/91
f  123/164/91 28/33/91 31/160/91
f  125/152/102 126/168/103 127/169/104
f  126/168/103 119/170/105 127/169/104
f  120/148/106 124/151/107 128/171/108
f  33/122/109 36/172/110 118/173/111
f  129/30/112 123/32/113 122/153/114
f  130/174/115 121/25/116 131/23/117
f  40/10/118 26/33/119 129/30/112
f  28/12/120 123/32/113 26/33/119
f  121/25/116 120/148/106 131/23/117
f  122/153/114 130/174/115 129/30/112
f  130/174/115 122/153/114 121/25/116
f  127/169/104 128/171/108 124/151/107
f  128/171/108 131/23/117 120/148/106
f  33/122/109 118/173/111 126/168/103
f  125/152/102 127/169/104 124/151/107
f  33/122/109 126/168/103 34/21/121
f  126/168/103 125/152/102 34/21/121
f  118/173/111 119/170/105 126/168/103
f  119/170/105 115/175/122 127/169/104
f  127/169/104 115/175/122 128/171/108
f  115/175/122 116/176/123 128/171/108
f  128/171/108 116/176/123 131/23/117
f  116/176/123 117/177/124 131/23/117
f  131/23/117 117/177/124 130/174/115
f  117/177/124 114/178/125 130/174/115
f  130/174/115 114/178/125 129/30/112
f  40/10/118 129/30/112 114/178/125
f  26/33/119 123/32/113 129/30/112
f  132/179/126 12/21/127 10/38/127
f  133/180/128 113/181/129 134/182/130
f  135/19/131 109/16/131 108/183/126
f  111/5/132 136/1/132 137/184/133
f  112/185/128 138/186/134 110/2/134
f  107/187/135 139/188/135 140/8/136
f  139/188/135 107/187/135 106/6/137
f  22/10/138 105/11/136 140/8/136
f  107/187/135 140/8/136 105/11/136
f  21/12/138 105/11/136 22/10/138
f  106/6/137 111/5/132 137/184/133
f  137/184/133 139/188/135 106/6/137
f  110/2/134 138/186/134 136/1/132
f  110/2/134 136/1/132 111/5/132
f  112/185/128 113/181/129 133/180/128
f  112/185/128 133/180/128 138/186/134
f  134/182/130 109/16/131 135/19/131
f  113/181/129 109/16/131 134/182/130
f  132/179/126 108/183/126 12/21/127
f  135/19/131 108/183/126 132/179/126
f  139/189/92 137/190/92 136/191/92
f  135/192/92 17/193/92 19/194/92
f  138/3/92 140/195/92 136/191/92
f  139/189/92 136/191/92 140/195/92
f  138/3/92 22/122/92 140/195/92
f  134/196/92 19/194/92 20/197/92
f  138/3/92 133/198/92 22/122/92
f  3/199/92 14/200/92 10/33/92
f  17/193/92 135/192/92 132/201/92
f  8/202/92 7/203/92 1/204/92
f  8/202/92 1/204/92 3/199/92
f  7/203/92 4/205/92 1/204/92
f  132/201/92 10/33/92 14/200/92
f  10/33/92 8/202/92 3/199/92
f  134/196/92 135/192/92 19/194/92
f  17/193/92 132/201/92 14/200/92
f  133/198/92 134/196/92 20/197/92
f  133/198/92 20/197/92 22/122/92
