# 
# Wavefront OBJ file
# Converted by the DEEP Exploration Deep Exploration 6.3 6.3.3.8068
# Right Hemisphere, LTD
# http://www.righthemisphere.com/
# 
mtllib 称重传感器插件.mtl
# object 3???′??D?÷2??t
g ________D___2__t
v 7.87846 -8.00000 -1.38919
v 7.87846 0.00000 -1.38919
v 7.87846 0.00000 1.38919
v 6.92820 -8.00000 -4.00000
v 6.92820 0.00000 -4.00000
v 5.14230 0.00000 -6.12836
v 5.14230 -8.00000 -6.12836
v 2.73616 -8.00000 -7.51754
v 2.73616 0.00000 -7.51754
v -0.00000 -8.00000 -7.99999
v -0.00000 0.00000 -7.99999
v 7.87846 -8.00000 1.38919
v 6.92820 -8.00000 4.00000
v 6.92820 0.00000 4.00000
v 5.14230 0.00000 6.12836
v 5.14230 -8.00000 6.12836
v 2.73616 0.00000 7.51754
v 2.73616 -8.00000 7.51754
v -0.00000 -0.00000 7.99999
v -0.00000 -8.00000 7.99999
v 6.64444 11.79744 -9.99257
v 5.65618 9.87605 -10.58337
v 5.65084 9.86859 10.58622
v -0.00000 7.00005 -12.00000
v -2.20564 7.35658 11.79556
v -0.00000 7.00005 12.00000
v 6.99999 14.00000 -9.74679
v 6.64479 11.79909 9.99234
v 4.14415 8.35849 -11.26171
v 6.99999 14.00000 9.74679
v 4.13515 8.35197 11.26502
v 2.20392 7.35619 -11.79588
v 2.20148 7.35544 11.79633
v -4.14555 8.35959 11.26119
v -4.13505 8.35193 -11.26505
v -6.99999 14.00000 9.74679
v -6.64427 11.79690 9.99268
v -6.64445 11.79742 -9.99256
v -5.65729 9.87752 10.58278
v -5.65033 9.86789 -10.58649
v -6.99999 14.00000 -9.74679
v -2.19985 7.35467 -11.79664
v 8.80389 24.00000 -8.15299
v 9.06899 0.00000 -7.85833
v 6.48769 0.00000 10.09504
v 6.48769 0.00000 -10.09504
v 3.38079 0.00000 -11.51392
v 0.00000 0.00000 -12.00000
v 10.91558 0.00000 4.98498
v 11.26826 24.00000 4.11771
v 9.73338 24.00000 7.01343
v 11.87786 0.00000 1.70778
v 11.96266 24.00000 0.91296
v 9.06899 0.00000 7.85833
v 3.38079 0.00000 11.51392
v 0.00000 -0.00000 12.00000
v 10.68373 24.00000 -5.46117
v 11.76326 24.00000 -2.36169
v 11.87786 0.00000 -1.70778
v 6.26397 24.00000 -10.23490
v 2.20173 20.64477 -11.79628
v 3.25410 24.00000 -11.55026
v 4.13729 19.64649 -11.26423
v 10.91558 0.00000 -4.98498
v 6.64500 16.20086 -9.99218
v 5.65185 18.12996 -10.58567
v 0.00000 24.00000 -12.00000
v 0.00000 21.00000 -12.00000
v 7.47392 24.00000 9.38486
v 5.44248 18.40223 10.69484
v 6.58583 16.37204 10.03128
v 4.67236 24.00000 11.05290
v 3.70289 19.94042 11.41440
v 1.50000 24.00000 11.90588
v 1.50000 20.83740 11.90588
v -6.58514 16.37396 10.03173
v -5.43598 18.41026 10.69815
v -7.49421 24.00000 9.37163
v -6.48769 0.00000 10.09504
v -3.38079 0.00000 11.51392
v -11.87786 0.00000 -1.70778
v -11.75471 24.00000 -2.40113
v -10.91558 0.00000 -4.98498
v -9.06899 0.00000 -7.85833
v -8.78036 24.00000 -8.17510
v -11.28258 24.00000 4.08287
v -10.91558 0.00000 4.98498
v -9.75396 24.00000 6.98856
v -3.69651 19.94440 11.41647
v -1.50000 24.00000 11.90588
v -4.67236 24.00000 11.05290
v -1.50000 20.83740 11.90588
v -11.87786 0.00000 1.70778
v -11.96621 24.00000 0.87276
v -9.06899 0.00000 7.85833
v -6.24219 24.00000 -10.24549
v -6.48769 0.00000 -10.09504
v -4.14332 19.64207 -11.26201
v -5.65613 18.12410 -10.58340
v -6.64414 16.20345 -9.99290
v -2.20433 20.64391 -11.79567
v -3.25410 24.00000 -11.55026
v -10.66517 24.00000 -5.49395
v -3.38079 0.00000 -11.51392
v -1.06067 24.00000 -1.56066
v 1.50000 24.00000 -0.50000
v 1.06067 24.00000 -1.56066
v 0.00000 24.00000 -1.99999
v -1.50000 24.00000 -0.50000
v -2.73615 0.00000 7.51752
v -6.92822 -0.00000 3.99999
v -5.14231 0.00000 6.12838
v -5.14231 0.00000 -6.12838
v -2.73615 0.00000 -7.51752
v -7.87845 0.00000 1.38919
v -7.87845 0.00000 -1.38919
v -6.92822 0.00000 -3.99999
v -1.50000 20.83741 -0.50000
v 1.06014 20.91926 -1.56119
v -1.06067 20.91918 -1.56066
v -0.00125 21.00000 -1.99999
v 1.50000 20.83741 -0.50000
v -2.73616 -8.00000 -7.51754
v -7.87846 -8.00000 -1.38919
v -6.92820 -8.00000 -4.00000
v -5.14230 -8.00000 -6.12836
v -6.92820 -8.00000 4.00000
v -5.14230 -8.00000 6.12836
v -7.87846 -8.00000 1.38919
v -2.73616 -8.00000 7.51754
# 130 verticies
vt 0.55556 0.00000
vt 0.55556 1.00000
vt 0.44444 1.00000
vt 0.66667 0.00000
vt 0.66667 1.00000
vt 0.77778 1.00000
vt 0.77778 0.00000
vt 0.88889 0.00000
vt 0.88889 1.00000
vt 1.00000 0.00000
vt 1.00000 1.00000
vt 0.44444 0.00000
vt 0.33333 0.00000
vt 0.33333 1.00000
vt 0.22222 1.00000
vt 0.22222 0.00000
vt 0.11111 1.00000
vt 0.11111 0.00000
vt 0.00000 1.00000
vt 0.00000 0.00000
vt 0.89811 0.08364
vt 0.79947 0.05903
vt 0.79905 0.94109
vt 0.50000 0.00000
vt 0.39796 0.99148
vt 0.50000 1.00000
vt 1.00000 0.09388
vt 0.89819 0.91635
vt 0.70167 0.03076
vt 1.00000 0.90612
vt 0.70116 0.96938
vt 0.60195 0.00851
vt 0.60184 0.99151
vt 0.29825 0.96922
vt 0.29884 0.03062
vt 0.00000 0.90612
vt 0.10191 0.91636
vt 0.10189 0.08364
vt 0.20045 0.94095
vt 0.20099 0.05890
vt 0.00000 0.09388
vt 0.39824 0.00847
vt 0.26185 0.00000
vt 0.27273 1.00000
vt 0.19825 0.41667
vt 0.80175 0.41667
vt 0.81320 0.50837
vt 0.81818 1.00000
vt 0.18182 1.00000
vt 0.05879 0.69349
vt 0.09091 1.00000
vt 0.00000 1.00000
vt 0.63636 1.00000
vt 0.61098 0.00000
vt 0.69826 0.00000
vt 0.54545 1.00000
vt 0.52369 0.00000
vt 0.72727 1.00000
vt 0.88802 0.65200
vt 0.94127 0.69352
vt 0.90909 1.00000
vt 1.00000 1.00000
vt 1.00000 0.70833
vt 0.84393 0.58881
vt 0.34913 0.00000
vt 0.43641 0.00000
vt 0.45455 1.00000
vt 0.11224 0.65173
vt 0.15623 0.58850
vt 0.00000 0.70833
vt 0.17456 0.00000
vt 0.18679 0.50844
vt 0.05874 0.13980
vt 0.08728 0.00000
vt 0.11204 0.18140
vt 0.36364 1.00000
vt 0.18680 0.32496
vt 0.15610 0.24458
vt 0.00000 0.00000
vt 0.00000 0.12500
vt 0.78554 0.00000
vt 0.85016 0.23324
vt 0.81508 0.31783
vt 0.87282 0.00000
vt 0.90015 0.16915
vt 0.96011 0.00000
vt 0.96011 0.13178
vt 0.05884 0.69348
vt 0.00000 0.70833
vt 0.18490 0.31775
vt 0.14965 0.23291
vt 0.21446 0.00000
vt 0.18182 1.00000
vt 0.18678 0.50846
vt 0.19825 0.41667
vt 0.11228 0.65168
vt 0.09091 1.00000
vt 0.56359 0.00000
vt 0.63636 1.00000
vt 0.80175 0.41667
vt 0.72727 1.00000
vt 0.73815 0.00000
vt 0.38902 0.00000
vt 0.36364 1.00000
vt 0.30174 0.00000
vt 0.09967 0.16898
vt 0.03989 0.00000
vt 0.12718 0.00000
vt 0.03989 0.13178
vt 0.45455 1.00000
vt 0.47631 0.00000
vt 0.27273 1.00000
vt 0.82544 0.00000
vt 0.81818 1.00000
vt 0.88779 0.18158
vt 0.84377 0.24483
vt 0.81323 0.32486
vt 0.94120 0.13985
vt 0.91272 0.00000
vt 1.00000 0.12500
vt 0.65087 0.00000
vt 0.81321 0.50844
vt 0.84394 0.58884
vt 0.88802 0.65200
vt 0.94131 0.69356
vt 1.00000 1.00000
vt 0.90909 1.00000
vt 1.00000 0.70833
vt 0.15627 0.58844
vt 0.07339 0.23921
vt 0.16000 0.13314
vt 0.43668 0.45575
vt 0.48105 0.56276
vt 0.79535 0.90684
vt 0.67422 0.97098
vt 0.01881 0.36408
vt 0.89454 0.81241
vt 0.96432 0.69533
vt 1.00000 0.56276
vt 0.54016 1.00000
vt 0.40318 0.99167
vt 0.27352 0.94655
vt 0.16092 0.86799
vt 0.43668 0.54440
vt 0.01881 0.63607
vt 0.41831 0.50007
vt 0.07384 0.76185
vt 0.27215 0.05437
vt 0.00000 0.50007
vt 0.48105 0.43739
vt 0.40153 0.00884
vt 0.53848 0.00000
vt 0.79431 0.09245
vt 0.89399 0.18689
vt 0.67276 0.02857
vt 0.96432 0.30481
vt 1.00000 0.43739
vt 0.07937 0.77310
vt 0.24465 0.71647
vt 0.18677 0.61518
vt 0.70771 0.95949
vt 0.55788 0.83164
vt 0.57116 1.00000
vt 0.44212 0.83164
vt 0.29229 0.95949
vt 0.42884 1.00000
vt 0.82743 0.88176
vt 0.66667 0.79164
vt 0.33333 0.79164
vt 0.75535 0.71647
vt 0.92063 0.77310
vt 0.81323 0.61518
vt 0.17257 0.88176
vt 0.97975 0.35769
vt 0.81323 0.38482
vt 0.83333 0.50000
vt 0.66667 0.20836
vt 0.75535 0.28353
vt 0.82743 0.11824
vt 0.24465 0.28353
vt 0.07937 0.22690
vt 0.18677 0.38482
vt 0.57116 0.00000
vt 0.55788 0.16836
vt 0.70771 0.04051
vt 0.44212 0.16836
vt 0.42884 0.00000
vt 0.33333 0.20836
vt 0.17257 0.11824
vt 0.29229 0.04051
vt 0.92063 0.22690
vt 0.02025 0.35769
vt 0.00000 0.50000
vt 0.16667 0.50000
vt 0.02025 0.64231
vt 1.00000 0.50000
vt 0.97975 0.64231
vt 0.67709 0.97953
vt 0.70162 0.03087
vt 0.60197 0.00855
vt 0.56874 1.00000
vt 0.56874 0.48105
vt 0.45161 0.43666
vt 0.50000 0.00000
vt 0.39815 0.00852
vt 0.54842 0.43668
vt 0.50006 0.41831
vt 0.29872 0.03078
vt 0.32257 0.97944
vt 0.00000 0.90968
vt 0.11004 0.92158
vt 0.10181 0.08399
vt 0.21649 0.94934
vt 0.20087 0.05916
vt 0.43126 1.00000
vt 0.00000 0.09425
vt 0.43126 0.48105
vt 0.78304 0.94948
vt 0.79946 0.05926
vt 0.88986 0.92160
vt 0.89807 0.08396
vt 1.00000 0.90968
vt 1.00000 0.09425
vt 0.50000 1.00000
vt 0.75000 0.02586
vt 0.50026 0.05141
vt 0.75000 1.00000
vt 0.25016 0.02588
vt 0.25000 1.00000
vt 0.11111 0.00000
vt 0.22222 0.00000
vt 0.22222 1.00000
vt 0.11111 1.00000
vt 0.66667 1.00000
vt 0.66667 0.00000
vt 0.77778 0.00000
vt 0.55556 0.00000
vt 0.88889 1.00000
vt 0.77778 1.00000
vt 0.88889 0.00000
vt 0.11698 0.17365
vt 0.25000 0.06031
vt 0.41318 0.00000
vt 0.25000 0.93969
vt 0.96985 0.32635
vt 0.58682 0.00000
vt 0.03015 0.32635
vt 0.75000 0.06031
vt 0.88302 0.17365
vt 0.03015 0.67365
vt 0.96985 0.67365
vt 0.41318 1.00000
vt 0.11698 0.82635
vt 0.58682 1.00000
vt 0.88302 0.82635
vt 0.75000 0.93969
# 256 texture verticies
vn 0.98482 0.00000 -0.17360
vn 0.98482 0.00000 -0.17360
vn 0.98482 0.00000 0.17360
vn 0.86601 0.00000 -0.50003
vn 0.64277 0.00000 -0.76606
vn 0.34204 0.00000 -0.93969
vn -0.00003 0.00000 -1.00000
vn -0.00003 0.00000 -1.00000
vn 0.86601 0.00000 0.50003
vn 0.64277 0.00000 0.76606
vn 0.34204 0.00000 0.93969
vn -0.00003 0.00000 1.00000
vn -0.00003 0.00000 1.00000
vn -0.94920 0.31467 0.00000
vn -0.80805 0.58911 0.00000
vn -0.80728 0.59017 0.00000
vn -0.00000 1.00000 0.00000
vn 0.31507 0.94907 0.00000
vn -1.00000 -0.00003 0.00000
vn -0.94927 0.31445 0.00000
vn -0.59200 0.80594 0.00000
vn -1.00000 -0.00003 0.00000
vn -0.59072 0.80688 0.00000
vn -0.31483 0.94915 0.00000
vn -0.31448 0.94926 0.00000
vn 0.59220 0.80579 0.00000
vn 0.59071 0.80689 0.00000
vn 1.00000 -0.00003 0.00000
vn 0.94917 0.31475 0.00000
vn 0.94920 0.31468 0.00000
vn 0.80821 0.58890 0.00000
vn 0.80721 0.59027 0.00000
vn 0.31424 0.94934 0.00000
vn 0.73293 0.00000 -0.68031
vn 0.75575 0.00000 -0.65486
vn 0.58333 0.00000 -0.81223
vn 0.58333 0.00000 0.81223
vn 0.55373 0.00000 0.83269
vn 0.54064 0.00000 0.84125
vn 0.54064 0.00000 -0.84125
vn 0.18366 0.00000 -0.98299
vn 0.28173 0.00000 -0.95949
vn 0.00000 0.00000 -1.00000
vn 0.90963 0.00000 0.41541
vn 0.93984 0.00000 0.34162
vn 0.81222 0.00000 0.58335
vn 0.98982 0.00000 0.14232
vn 0.99723 0.00000 0.07437
vn 0.75575 0.00000 0.65486
vn 0.34460 0.00000 0.93875
vn 0.18346 0.00000 0.98303
vn 0.28173 0.00000 0.95949
vn 0.00000 0.00000 1.00000
vn 0.47090 0.00000 0.88219
vn 0.88976 0.00000 -0.45642
vn 0.98011 0.00000 -0.19844
vn 0.98982 0.00000 -0.14232
vn 0.34535 0.00000 -0.93848
vn 0.47135 0.00000 -0.88195
vn 0.00000 0.00000 -1.00000
vn 0.52133 0.00000 -0.85335
vn 0.55370 0.00000 -0.83271
vn 0.18348 0.00000 -0.98302
vn 0.27078 0.00000 -0.96264
vn 0.34477 0.00000 -0.93869
vn 0.90963 0.00000 -0.41541
vn 0.55375 0.00000 -0.83268
vn 0.47099 0.00000 -0.88214
vn 0.00000 0.00000 -1.00000
vn 0.00000 0.00000 -1.00000
vn 0.62391 0.00000 0.78149
vn 0.45354 0.00000 0.89124
vn 0.54882 0.00000 0.83594
vn 0.38899 0.00000 0.92124
vn 0.30857 0.00000 0.95120
vn 0.12500 0.00000 0.99216
vn -0.18380 0.00000 0.98296
vn -0.00000 0.00000 1.00000
vn -0.54876 0.00000 0.83598
vn -0.45300 0.00000 0.89151
vn -0.62391 0.00000 0.78149
vn -0.54064 0.00000 0.84125
vn -0.55369 0.00000 0.83272
vn -0.58333 0.00000 0.81223
vn -0.34546 0.00000 0.93843
vn -0.28173 0.00000 0.95949
vn -0.98982 -0.00000 -0.14232
vn -0.98011 -0.00000 -0.19844
vn -0.90963 -0.00000 -0.41541
vn -0.58333 -0.00000 -0.81223
vn -0.75575 -0.00000 -0.65486
vn -0.73293 -0.00000 -0.68031
vn -0.93984 0.00000 0.34162
vn -0.90963 0.00000 0.41541
vn -0.81222 0.00000 0.58335
vn -0.30804 0.00000 0.95137
vn -0.12500 0.00000 0.99216
vn -0.38899 0.00000 0.92124
vn -0.98982 0.00000 0.14232
vn -0.99723 0.00000 0.07437
vn -0.75575 0.00000 0.65486
vn -0.52133 -0.00000 -0.85335
vn -0.54064 -0.00000 -0.84125
vn -0.34528 -0.00000 -0.93850
vn -0.47134 -0.00000 -0.88195
vn -0.55366 -0.00000 -0.83274
vn -0.00000 -0.00000 -1.00000
vn -0.18369 -0.00000 -0.98298
vn -0.27078 -0.00000 -0.96264
vn -0.88976 -0.00000 -0.45642
vn -0.55371 -0.00000 -0.83271
vn -0.47086 -0.00000 -0.88221
vn -0.34459 -0.00000 -0.93875
vn -0.18332 -0.00000 -0.98305
vn -0.00000 -0.00000 -1.00000
vn -0.28173 -0.00000 -0.95949
vn -0.47144 0.00000 0.88190
vn 0.00000 1.00000 0.00000
vn -0.00000 -1.00000 -0.00000
vn 0.52809 -0.84919 0.00000
vn 0.59188 -0.80602 0.00000
vn 0.31488 -0.94913 0.00000
vn 0.21423 -0.97678 0.00000
vn 0.21423 -0.97678 0.00000
vn -0.15140 -0.98847 0.00000
vn 0.00000 -1.00000 0.00000
vn -0.31451 -0.94925 0.00000
vn 0.15147 -0.98846 0.00000
vn 0.00018 -1.00000 0.00000
vn -0.59102 -0.80666 0.00000
vn -0.52901 -0.84862 0.00000
vn -1.00000 0.00003 0.00000
vn -0.94083 -0.33888 0.00000
vn -0.94928 -0.31443 0.00000
vn -0.77751 -0.62887 0.00000
vn -0.80743 -0.58997 0.00000
vn -0.21423 -0.97678 0.00000
vn -1.00000 0.00003 0.00000
vn -0.21423 -0.97678 0.00000
vn 0.77658 -0.63001 0.00000
vn 0.80804 -0.58913 0.00000
vn 0.94073 -0.33916 0.00000
vn 0.94916 -0.31480 0.00000
vn 1.00000 0.00003 0.00000
vn -1.00000 -0.00000 -0.00000
vn 1.00000 0.00000 0.00000
vn 0.00000 0.00000 1.00000
vn 0.70711 0.00000 0.70711
vn 0.00083 0.00000 1.00000
vn 1.00000 0.00000 -0.00003
vn 0.70711 0.00000 0.70711
vn -1.00000 0.00000 -0.00003
vn -0.70676 0.00000 0.70746
vn -0.70711 0.00000 0.70711
vn -0.34204 0.00000 -0.93969
vn 0.00003 0.00000 -1.00000
vn -0.98482 0.00000 -0.17360
vn -0.86601 0.00000 -0.50003
vn -0.64277 0.00000 -0.76606
vn -0.86601 0.00000 0.50003
vn -0.64277 0.00000 0.76606
vn -0.98482 0.00000 0.17360
vn -0.34204 0.00000 0.93969
vn -0.34204 0.00000 0.93969
vn 0.00003 0.00000 1.00000
# 165 normals
usemtl Explorer_Default
f  1/1/1 2/2/2 3/3/3
f  2/2/2 4/4/4 5/5/4
f  4/4/4 2/2/2 1/1/1
f  6/6/5 5/5/4 7/7/5
f  4/4/4 7/7/5 5/5/4
f  8/8/6 9/9/6 6/6/5
f  6/6/5 7/7/5 8/8/6
f  10/10/7 9/9/6 8/8/6
f  10/10/7 11/11/8 9/9/6
f  1/1/1 3/3/3 12/12/3
f  13/13/9 12/12/3 14/14/9
f  3/3/3 14/14/9 12/12/3
f  15/15/10 16/16/10 13/13/9
f  13/13/9 14/14/9 15/15/10
f  16/16/10 17/17/11 18/18/11
f  17/17/11 16/16/10 15/15/10
f  17/17/11 19/19/12 18/18/11
f  18/18/11 19/19/12 20/20/13
f  21/21/14 22/22/15 23/23/16
f  24/24/17 25/25/18 26/26/17
f  27/27/19 21/21/14 28/28/20
f  23/23/16 28/28/20 21/21/14
f  29/29/21 23/23/16 22/22/15
f  27/27/19 28/28/20 30/30/22
f  29/29/21 31/31/23 23/23/16
f  32/32/24 33/33/25 31/31/23
f  31/31/23 29/29/21 32/32/24
f  33/33/25 32/32/24 26/26/17
f  34/34/26 25/25/18 35/35/27
f  32/32/24 24/24/17 26/26/17
f  36/36/28 37/37/29 38/38/30
f  38/38/30 39/39/31 40/40/32
f  41/41/28 36/36/28 38/38/30
f  42/42/33 35/35/27 25/25/18
f  38/38/30 37/37/29 39/39/31
f  34/34/26 35/35/27 40/40/32
f  40/40/32 39/39/31 34/34/26
f  25/25/18 24/24/17 42/42/33
f  43/43/34 44/44/35 27/45/36
f  30/46/37 28/47/38 45/48/39
f  27/45/36 44/44/35 46/49/40
f  32/50/41 47/51/42 48/52/43
f  49/53/44 50/54/45 51/55/46
f  50/54/45 52/56/47 53/57/48
f  54/58/49 30/46/37 45/48/39
f  31/59/50 33/60/51 55/61/52
f  55/61/52 45/48/39 31/59/50
f  33/60/51 56/62/53 55/61/52
f  26/63/53 56/62/53 33/60/51
f  45/48/39 23/64/54 31/59/50
f  23/64/54 45/48/39 28/47/38
f  44/44/35 43/43/34 57/65/55
f  58/66/56 53/57/48 59/67/57
f  29/68/58 22/69/59 46/49/40
f  46/49/40 47/51/42 29/68/58
f  48/52/43 24/70/60 32/50/41
f  47/51/42 32/50/41 29/68/58
f  43/43/34 27/45/36 60/71/61
f  27/45/36 46/49/40 21/72/62
f  61/73/63 62/74/64 63/75/65
f  64/76/66 44/44/35 57/65/55
f  60/71/61 27/45/36 65/77/67
f  21/72/62 46/49/40 22/69/59
f  63/75/65 60/71/61 66/78/68
f  60/71/61 63/75/65 62/74/64
f  60/71/61 65/77/67 66/78/68
f  61/73/63 67/79/69 62/74/64
f  68/80/70 67/79/69 61/73/63
f  64/76/66 57/65/55 58/66/56
f  59/67/57 64/76/66 58/66/56
f  59/67/57 53/57/48 52/56/47
f  54/58/49 49/53/44 51/55/46
f  52/56/47 50/54/45 49/53/44
f  54/58/49 69/81/71 30/46/37
f  69/81/71 54/58/49 51/55/46
f  69/81/71 70/82/72 71/83/73
f  30/46/37 69/81/71 71/83/73
f  70/82/72 72/84/74 73/85/75
f  72/84/74 70/82/72 69/81/71
f  72/84/74 74/86/76 73/85/75
f  73/85/75 74/86/76 75/87/76
f  25/88/77 56/19/78 26/89/78
f  76/90/79 77/91/80 78/92/81
f  79/93/82 37/94/83 36/95/84
f  34/96/85 79/93/82 80/97/86
f  81/56/87 82/98/88 83/99/89
f  41/100/90 84/101/91 85/102/92
f  78/92/81 36/95/84 76/90/79
f  86/103/93 87/104/94 88/105/95
f  89/106/96 90/107/97 91/108/98
f  91/108/98 78/92/81 77/91/80
f  92/109/97 90/107/97 89/106/96
f  89/106/96 91/108/98 77/91/80
f  93/110/99 86/103/93 94/111/100
f  78/92/81 88/105/95 95/112/101
f  85/102/92 96/113/102 41/100/90
f  41/100/90 97/114/103 84/101/91
f  98/115/104 99/116/105 96/113/102
f  100/117/106 41/100/90 96/113/102
f  67/10/107 101/118/108 102/119/109
f  98/115/104 102/119/109 101/118/108
f  68/120/107 101/118/108 67/10/107
f  98/115/104 96/113/102 102/119/109
f  84/101/91 103/121/110 85/102/92
f  38/122/111 40/123/112 97/114/103
f  100/117/106 96/113/102 99/116/105
f  41/100/90 38/122/111 97/114/103
f  97/114/103 40/123/112 35/124/113
f  83/99/89 103/121/110 84/101/91
f  103/121/110 83/99/89 82/98/88
f  42/125/114 48/126/115 104/127/116
f  104/127/116 35/124/113 42/125/114
f  24/128/115 48/126/115 42/125/114
f  82/98/88 81/56/87 94/111/100
f  104/127/116 97/114/103 35/124/113
f  86/103/93 93/110/99 87/104/94
f  94/111/100 81/56/87 93/110/99
f  36/95/84 78/92/81 95/112/101
f  87/104/94 95/112/101 88/105/95
f  79/93/82 39/129/117 37/94/83
f  79/93/82 36/95/84 95/112/101
f  34/96/85 80/97/86 25/88/77
f  39/129/117 79/93/82 34/96/85
f  56/19/78 25/88/77 80/97/86
f  96/130/118 85/131/118 105/132/118
f  106/133/118 51/134/118 50/135/118
f  96/130/118 105/132/118 102/136/118
f  69/137/118 106/133/118 72/138/118
f  106/133/118 74/139/118 72/138/118
f  50/135/118 53/140/118 106/133/118
f  106/133/118 69/137/118 51/134/118
f  106/133/118 58/141/118 57/142/118
f  53/140/118 58/141/118 106/133/118
f  43/143/118 107/144/118 57/142/118
f  107/144/118 62/145/118 108/146/118
f  62/145/118 107/144/118 60/147/118
f  103/148/118 105/132/118 85/131/118
f  102/136/118 108/146/118 67/149/118
f  105/132/118 103/148/118 109/150/118
f  109/150/118 82/151/118 94/152/118
f  82/151/118 109/150/118 103/148/118
f  88/153/118 78/154/118 109/150/118
f  88/153/118 109/150/118 86/155/118
f  91/156/118 90/157/118 109/150/118
f  91/156/118 109/150/118 78/154/118
f  86/155/118 109/150/118 94/152/118
f  108/146/118 102/136/118 105/132/118
f  67/149/118 108/146/118 62/145/118
f  107/144/118 43/143/118 60/147/118
f  57/142/118 107/144/118 106/133/118
f  46/158/119 6/159/119 9/160/119
f  49/161/119 3/162/119 52/163/119
f  2/164/119 64/165/119 59/166/119
f  54/167/119 14/168/119 49/161/119
f  64/165/119 2/164/119 5/169/119
f  15/170/119 45/171/119 17/172/119
f  5/169/119 6/159/119 44/173/119
f  80/174/119 110/175/119 19/176/119
f  111/177/119 112/178/119 95/179/119
f  113/180/119 97/181/119 114/182/119
f  93/183/119 115/184/119 87/185/119
f  116/186/119 93/183/119 81/187/119
f  115/184/119 111/177/119 87/185/119
f  117/188/119 84/189/119 113/180/119
f  83/190/119 117/188/119 116/186/119
f  79/191/119 110/175/119 80/174/119
f  3/162/119 59/166/119 52/163/119
f  104/192/119 48/193/119 11/194/119
f  104/192/119 11/194/119 114/182/119
f  9/160/119 11/194/119 47/195/119
f  80/174/119 19/176/119 56/196/119
f  19/176/119 55/197/119 56/196/119
f  79/191/119 95/179/119 112/178/119
f  110/175/119 79/191/119 112/178/119
f  95/179/119 87/185/119 111/177/119
f  115/184/119 93/183/119 116/186/119
f  81/187/119 83/190/119 116/186/119
f  83/190/119 84/189/119 117/188/119
f  84/189/119 97/181/119 113/180/119
f  97/181/119 104/192/119 114/182/119
f  48/193/119 47/195/119 11/194/119
f  47/195/119 46/158/119 9/160/119
f  46/158/119 44/173/119 6/159/119
f  44/173/119 64/165/119 5/169/119
f  2/164/119 59/166/119 3/162/119
f  3/162/119 49/161/119 14/168/119
f  14/168/119 54/167/119 15/170/119
f  45/171/119 55/197/119 17/172/119
f  54/167/119 45/171/119 15/170/119
f  19/176/119 17/172/119 55/197/119
f  89/198/120 98/199/121 101/200/122
f  92/201/123 101/200/122 118/202/124
f  89/198/120 101/200/122 92/201/123
f  119/203/125 68/204/126 61/205/127
f  101/200/122 120/206/128 118/202/124
f  120/206/128 68/204/126 121/207/129
f  63/208/130 73/209/131 61/205/127
f  30/210/132 71/211/133 65/212/134
f  70/213/135 73/209/131 63/208/130
f  71/211/133 70/213/135 66/214/136
f  75/215/137 61/205/127 73/209/131
f  65/212/134 27/216/138 30/210/132
f  63/208/130 66/214/136 70/213/135
f  71/211/133 66/214/136 65/212/134
f  75/215/137 122/217/139 61/205/127
f  121/207/129 68/204/126 119/203/125
f  119/203/125 61/205/127 122/217/139
f  120/206/128 101/200/122 68/204/126
f  98/199/121 77/218/140 99/219/141
f  89/198/120 77/218/140 98/199/121
f  76/220/142 100/221/143 99/219/141
f  99/219/141 77/218/140 76/220/142
f  76/220/142 36/222/144 100/221/143
f  36/222/144 41/223/144 100/221/143
f  74/19/145 106/62/145 122/10/145
f  122/10/145 75/79/145 74/19/145
f  92/10/146 109/19/146 90/62/146
f  92/10/146 118/79/146 109/19/146
f  108/224/147 120/225/148 121/226/149
f  118/10/150 105/227/151 109/62/150
f  122/79/152 106/19/152 119/228/153
f  106/19/152 107/229/154 119/228/153
f  119/228/153 107/229/154 121/226/149
f  108/224/147 105/227/151 120/225/148
f  107/229/154 108/224/147 121/226/149
f  118/10/150 120/225/148 105/227/151
f  123/230/155 11/19/156 10/79/156
f  124/12/157 117/14/158 125/13/158
f  126/231/159 113/232/159 114/233/155
f  111/234/160 127/235/160 128/236/161
f  116/3/157 129/237/162 115/2/162
f  110/238/163 112/239/161 130/240/164
f  128/236/161 130/240/164 112/239/161
f  20/10/165 19/62/165 110/238/163
f  110/238/163 130/240/164 20/10/165
f  111/234/160 115/2/162 127/235/160
f  111/234/160 128/236/161 112/239/161
f  116/3/157 124/12/157 129/237/162
f  115/2/162 129/237/162 127/235/160
f  117/14/158 113/232/159 125/13/158
f  116/3/157 117/14/158 124/12/157
f  126/231/159 114/233/155 123/230/155
f  125/13/158 113/232/159 126/231/159
f  11/19/156 123/230/155 114/233/155
f  128/241/119 127/242/119 129/243/119
f  13/244/119 123/245/119 10/196/119
f  124/246/119 130/247/119 129/243/119
f  128/241/119 129/243/119 130/247/119
f  124/246/119 20/193/119 130/247/119
f  125/248/119 126/249/119 18/250/119
f  124/246/119 125/248/119 20/193/119
f  8/251/119 12/252/119 10/196/119
f  13/244/119 16/253/119 123/245/119
f  1/254/119 8/251/119 7/255/119
f  7/255/119 4/256/119 1/254/119
f  13/244/119 10/196/119 12/252/119
f  12/252/119 8/251/119 1/254/119
f  123/245/119 16/253/119 126/249/119
f  16/253/119 18/250/119 126/249/119
f  18/250/119 20/193/119 125/248/119
