# 
# Wavefront OBJ file
# Converted by the DEEP Exploration Deep Exploration 6.3 6.3.3.8068
# Right Hemisphere, LTD
# http://www.righthemisphere.com/
# 
mtllib Á¬½Ó¸Ë.mtl
# object ¨¢??¨®??
g ________
v 7.50000 765.00000 0.00000
v 6.92910 765.00000 2.87013
v 7.50000 0.00000 0.00000
v 6.92910 0.00000 2.87013
v 5.30330 765.00000 5.30330
v 2.87013 765.00000 6.92910
v 5.30330 0.00000 5.30330
v -0.00000 765.00000 7.49999
v 2.87013 0.00000 6.92910
v -0.00000 0.00000 7.49999
v 6.92910 0.00000 -2.87013
v 5.30330 0.00000 -5.30330
v 6.92910 765.00000 -2.87013
v 2.87013 0.00000 -6.92910
v 5.30330 765.00000 -5.30330
v 2.87013 765.00000 -6.92910
v -0.00000 0.00000 -7.49999
v -0.00000 765.00000 -7.49999
v -2.87013 765.00000 6.92910
v -7.50000 765.00000 -0.00000
v -6.92910 0.00000 2.87013
v -6.92910 765.00000 2.87013
v -5.30330 765.00000 5.30330
v -5.30330 0.00000 5.30330
v -2.87013 0.00000 6.92910
v -5.30330 0.00000 -5.30330
v -5.30330 765.00000 -5.30330
v -2.87013 765.00000 -6.92910
v -7.50000 0.00000 -0.00000
v -6.92910 765.00000 -2.87013
v -6.92910 0.00000 -2.87013
v -2.87013 0.00000 -6.92910
# 32 verticies
vt 0.50000 0.00000
vt 0.62500 0.00000
vt 0.50000 1.00000
vt 0.62500 1.00000
vt 0.75000 0.00000
vt 0.87500 0.00000
vt 0.75000 1.00000
vt 1.00000 0.00000
vt 0.87500 1.00000
vt 1.00000 1.00000
vt 0.37500 1.00000
vt 0.25000 1.00000
vt 0.37500 0.00000
vt 0.12500 1.00000
vt 0.25000 0.00000
vt 0.12500 0.00000
vt 0.00000 1.00000
vt 0.00000 0.00000
vt 0.12500 0.00000
vt 0.00000 1.00000
vt 0.50000 0.00000
vt 0.37500 1.00000
vt 0.37500 0.00000
vt 0.25000 0.00000
vt 0.25000 1.00000
vt 0.12500 1.00000
vt 0.75000 1.00000
vt 0.75000 0.00000
vt 0.62500 0.00000
vt 0.62500 1.00000
vt 1.00000 1.00000
vt 0.03806 0.30866
vt 0.14645 0.14645
vt 0.30866 0.03806
vt 0.14645 0.85355
vt 0.85355 0.14645
vt 0.96194 0.30866
vt 0.00000 0.50000
vt 0.69134 0.03806
vt 1.00000 0.50000
vt 0.30866 0.96194
vt 0.03806 0.69134
vt 0.96194 0.69134
vt 0.69134 0.96194
vt 0.85355 0.85355
# 45 texture verticies
vn 1.00000 0.00000 0.00000
vn 0.92388 0.00000 0.38269
vn 1.00000 0.00000 -0.00000
vn 0.70711 0.00000 0.70711
vn 0.38269 0.00000 0.92388
vn -0.00003 0.00000 1.00000
vn -0.00003 0.00000 1.00000
vn 0.92388 0.00000 -0.38269
vn 0.70711 0.00000 -0.70711
vn 0.38269 0.00000 -0.92388
vn 0.38269 0.00000 -0.92388
vn -0.00003 -0.00000 -1.00000
vn -0.00003 -0.00000 -1.00000
vn -0.38269 0.00000 0.92388
vn 0.00003 0.00000 1.00000
vn -1.00000 -0.00000 -0.00000
vn -0.92388 0.00000 0.38269
vn -0.70711 0.00000 0.70711
vn -0.70711 -0.00000 -0.70711
vn -0.38269 -0.00000 -0.92388
vn -0.92388 -0.00000 -0.38269
vn 0.00003 0.00000 -1.00000
vn 0.00000 1.00000 0.00000
vn -0.00000 -1.00000 -0.00000
# 24 normals
usemtl Explorer_Default
f  1/1/1 2/2/2 3/3/3
f  4/4/2 2/2/2 5/5/4
f  2/2/2 4/4/2 3/3/3
f  6/6/5 7/7/4 5/5/4
f  4/4/2 5/5/4 7/7/4
f  6/6/5 8/8/6 9/9/5
f  9/9/5 7/7/4 6/6/5
f  8/8/6 10/10/7 9/9/5
f  11/11/8 1/1/1 3/3/3
f  12/12/9 13/13/8 11/11/8
f  1/1/1 11/11/8 13/13/8
f  12/12/9 14/14/10 15/15/9
f  15/15/9 13/13/8 12/12/9
f  16/16/11 14/14/10 17/17/12
f  14/14/10 16/16/11 15/15/9
f  16/16/11 17/17/12 18/18/13
f  19/19/14 10/20/15 8/18/15
f  20/21/16 21/22/17 22/23/17
f  23/24/18 24/25/18 25/26/14
f  26/27/19 27/28/19 28/6/20
f  29/3/16 30/29/21 31/30/21
f  18/8/22 32/9/20 28/6/20
f  26/27/19 28/6/20 32/9/20
f  17/31/22 32/9/20 18/8/22
f  30/29/21 27/28/19 31/30/21
f  31/30/21 27/28/19 26/27/19
f  29/3/16 21/22/17 20/21/16
f  29/3/16 20/21/16 30/29/21
f  22/23/17 24/25/18 23/24/18
f  21/22/17 24/25/18 22/23/17
f  19/19/14 25/26/14 10/20/15
f  23/24/18 25/26/14 19/19/14
f  28/32/23 27/33/23 30/34/23
f  15/35/23 23/36/23 19/37/23
f  28/32/23 30/34/23 20/21/23
f  18/38/23 20/21/23 22/39/23
f  20/21/23 18/38/23 28/32/23
f  8/40/23 13/41/23 19/37/23
f  15/35/23 16/42/23 23/36/23
f  1/3/23 6/43/23 2/44/23
f  8/40/23 6/43/23 1/3/23
f  6/43/23 5/45/23 2/44/23
f  15/35/23 19/37/23 13/41/23
f  13/41/23 8/40/23 1/3/23
f  23/36/23 16/42/23 22/39/23
f  22/39/23 16/42/23 18/38/23
f  12/35/24 25/37/24 24/36/24
f  4/44/24 9/43/24 3/3/24
f  9/43/24 4/44/24 7/45/24
f  10/40/24 11/41/24 3/3/24
f  3/3/24 9/43/24 10/40/24
f  17/38/24 14/42/24 21/39/24
f  29/21/24 31/34/24 32/32/24
f  32/32/24 17/38/24 29/21/24
f  26/33/24 32/32/24 31/34/24
f  21/39/24 29/21/24 17/38/24
f  14/42/24 12/35/24 24/36/24
f  14/42/24 24/36/24 21/39/24
f  10/40/24 25/37/24 11/41/24
f  11/41/24 25/37/24 12/35/24
