# 
# Wavefront OBJ file
# Converted by the DEEP Exploration Deep Exploration 6.3 6.3.3.8068
# Right Hemisphere, LTD
# http://www.righthemisphere.com/
# 
mtllib 链接传感器的金属板.mtl
# object á′?ó′??D?÷μ??eê?°?
g ___________D_______e______
v 94.46446 0.00000 -3.53553
v 94.46446 5.00000 -3.53553
v 96.08659 5.00000 -4.61940
v 98.00000 5.00000 -4.99999
v 98.00000 0.00000 -4.99999
v 96.08659 0.00000 -4.61940
v 93.00000 5.00000 -0.00000
v 93.38060 0.00000 1.91342
v 93.38060 5.00000 1.91342
v 93.00000 0.00000 -0.00000
v 93.38060 5.00000 -1.91342
v 93.38060 0.00000 -1.91342
v 94.46446 5.00000 3.53553
v 96.08659 0.00000 4.61940
v 96.08659 5.00000 4.61940
v 94.46446 0.00000 3.53553
v 98.00000 5.00000 4.99999
v 98.00000 -0.00000 4.99999
v -101.53554 0.00000 -3.53553
v -101.53554 5.00000 -3.53553
v -99.91341 5.00000 -4.61940
v -98.00000 5.00000 -4.99999
v -98.00000 0.00000 -4.99999
v -99.91341 0.00000 -4.61940
v -103.00000 5.00000 -0.00000
v -102.61940 0.00000 1.91342
v -102.61940 5.00000 1.91342
v -103.00000 0.00000 -0.00000
v -102.61940 5.00000 -1.91342
v -102.61940 0.00000 -1.91342
v -101.53554 5.00000 3.53553
v -99.91341 0.00000 4.61940
v -99.91341 5.00000 4.61940
v -101.53554 0.00000 3.53553
v -98.00000 5.00000 4.99999
v -98.00000 -0.00000 4.99999
v -107.50000 5.00000 15.00000
v -96.08659 5.00000 4.61938
v -107.50000 5.00000 -15.00000
v 107.50000 5.00000 -15.00000
v 107.50000 5.00000 15.00000
v 99.91341 5.00000 4.61938
v 101.53554 5.00000 3.53556
v -93.38057 5.00000 -1.91341
v -96.08659 5.00000 -4.61938
v -94.46446 5.00000 -3.53556
v -93.38057 5.00000 1.91341
v -93.00003 5.00000 -0.00000
v -94.46446 5.00000 3.53556
v 102.99997 5.00000 -0.00000
v 102.61943 5.00000 1.91341
v 101.53554 5.00000 -3.53556
v 102.61943 5.00000 -1.91341
v 99.91341 5.00000 -4.61938
v 107.50000 0.00000 -15.00000
v -107.50000 0.00000 -15.00000
v -93.38057 -0.00000 -1.91341
v -107.50000 0.00000 15.00000
v -96.08659 -0.00000 4.61938
v 102.99997 -0.00000 -0.00000
v 107.50000 0.00000 15.00000
v 101.53554 0.00000 3.53556
v 99.91341 -0.00000 4.61938
v 102.61943 0.00000 1.91341
v 101.53554 -0.00000 -3.53556
v 102.61943 -0.00000 -1.91341
v 99.91341 -0.00000 -4.61938
v -93.38057 0.00000 1.91341
v -94.46446 0.00000 3.53556
v -93.00003 -0.00000 -0.00000
v -96.08659 -0.00000 -4.61938
v -94.46446 -0.00000 -3.53556
# 72 verticies
vt 0.75000 1.00000
vt 0.87500 0.00000
vt 0.75000 0.00000
vt 1.00000 0.00000
vt 0.87500 1.00000
vt 1.00000 1.00000
vt 0.50000 0.00000
vt 0.37500 0.00000
vt 0.37500 1.00000
vt 0.50000 1.00000
vt 0.62500 1.00000
vt 0.62500 0.00000
vt 0.25000 0.00000
vt 0.12500 0.00000
vt 0.12500 1.00000
vt 0.25000 1.00000
vt 0.00000 0.00000
vt 0.00000 1.00000
vt 0.34602 0.05309
vt 0.33333 0.04419
vt 1.00000 0.00000
vt 0.65398 0.94691
vt 0.66667 0.95581
vt 0.38215 0.97226
vt 0.34602 0.96471
vt 0.56378 0.06567
vt 0.50000 0.93256
vt 0.56378 0.93433
vt 0.65398 0.05309
vt 0.61785 0.06063
vt 0.61785 0.93937
vt 0.43622 0.06567
vt 0.43622 0.93433
vt 0.50000 0.06744
vt 0.34602 0.94691
vt 0.38215 0.06063
vt 0.50000 0.02093
vt 0.33333 0.95581
vt 0.50000 0.97907
vt 0.43622 0.97730
vt 0.61785 0.97226
vt 0.56378 0.97730
vt 0.65398 0.96471
vt 0.38215 0.93937
vt 0.61785 0.02774
vt 0.65398 0.03529
vt 0.66667 0.04419
vt 0.56378 0.02270
vt 0.38215 0.02774
vt 0.43622 0.02270
vt 0.34602 0.03529
vt 0.00000 1.00000
vt 0.00000 1.00000
vt 0.37500 1.00000
vt 0.50000 0.00000
vt 0.37500 0.00000
vt 0.25000 1.00000
vt 0.25000 0.00000
vt 0.12500 1.00000
vt 0.00000 1.00000
vt 0.12500 0.00000
vt 0.62500 0.00000
vt 0.75000 0.00000
vt 0.62500 1.00000
vt 0.75000 1.00000
vt 1.00000 1.00000
# 66 texture verticies
vn 0.70711 0.00000 0.70711
vn 0.38269 0.00000 0.92388
vn -0.00003 0.00000 1.00000
vn 1.00000 0.00000 0.00000
vn 0.92388 0.00000 -0.38269
vn 1.00000 0.00000 0.00000
vn 0.92388 0.00000 0.38269
vn 0.70711 0.00000 -0.70711
vn 0.38269 0.00000 -0.92388
vn -0.00003 -0.00000 -1.00000
vn 1.00000 0.00000 0.00000
vn 1.00000 0.00000 0.00000
vn 0.00000 1.00000 0.00000
vn 0.00000 -1.00000 0.00000
vn -1.00000 0.00000 0.00000
vn 0.00000 0.00000 1.00000
vn 1.00000 0.00000 0.00000
vn -0.00000 -0.00000 -1.00000
vn -0.92388 0.00000 0.38269
vn -1.00000 0.00000 0.00000
vn -1.00000 -0.00000 -0.00000
vn -0.70711 0.00000 0.70711
vn -0.38269 0.00000 0.92388
vn 0.00003 0.00000 1.00000
vn -0.38269 0.00000 0.92388
vn 0.00003 0.00000 1.00000
vn -0.92388 -0.00000 -0.38269
vn -0.70711 -0.00000 -0.70711
vn -0.38269 -0.00000 -0.92388
vn 0.00003 0.00000 -1.00000
vn 0.00003 0.00000 -1.00000
vn -1.00000 0.00000 0.00000
vn -1.00000 -0.00000 -0.00000
# 33 normals
usemtl Explorer_Default
f  1/1/1 3/2/2 2/3/1
f  4/4/3 6/5/2 5/6/3
f  7/7/4 9/8/5 8/9/5
f  10/10/6 12/11/7 11/12/7
f  13/13/8 15/14/9 14/15/9
f  14/15/9 16/16/8 13/13/8
f  17/17/10 18/18/10 15/14/9
f  14/15/9 15/14/9 18/18/10
f  16/16/8 8/9/5 9/8/5
f  9/8/5 13/13/8 16/16/8
f  7/7/4 10/10/6 11/12/7
f  7/7/4 8/9/5 10/10/6
f  12/11/7 1/1/1 2/3/1
f  11/12/7 12/11/7 2/3/1
f  6/5/2 4/4/3 3/2/2
f  1/1/1 6/5/2 3/2/2
f  19/1/1 21/2/2 20/3/1
f  22/4/3 24/5/2 23/6/3
f  25/7/11 27/8/5 26/9/5
f  28/10/12 30/11/7 29/12/7
f  31/13/8 33/14/9 32/15/9
f  32/15/9 34/16/8 31/13/8
f  35/17/10 36/18/10 33/14/9
f  32/15/9 33/14/9 36/18/10
f  34/16/8 26/9/5 27/8/5
f  27/8/5 31/13/8 34/16/8
f  25/7/11 28/10/12 29/12/7
f  25/7/11 26/9/5 28/10/12
f  30/11/7 19/1/1 20/3/1
f  29/12/7 30/11/7 20/3/1
f  24/5/2 22/4/3 21/2/2
f  19/1/1 24/5/2 21/2/2
f  37/17/13 38/19/13 35/20/13
f  39/21/13 3/22/13 40/6/13
f  40/6/13 3/22/13 4/23/13
f  41/18/13 43/24/13 42/25/13
f  44/26/13 7/27/13 11/28/13
f  45/29/13 46/30/13 2/31/13
f  47/32/13 9/33/13 48/34/13
f  7/27/13 48/34/13 9/33/13
f  38/19/13 41/18/13 15/35/13
f  15/35/13 49/36/13 38/19/13
f  25/37/13 39/21/13 37/17/13
f  17/38/13 15/35/13 41/18/13
f  40/6/13 50/39/13 41/18/13
f  41/18/13 42/25/13 17/38/13
f  41/18/13 50/39/13 51/40/13
f  41/18/13 51/40/13 43/24/13
f  52/41/13 53/42/13 40/6/13
f  40/6/13 53/42/13 50/39/13
f  4/23/13 54/43/13 40/6/13
f  40/6/13 54/43/13 52/41/13
f  3/22/13 39/21/13 45/29/13
f  49/36/13 15/35/13 13/44/13
f  20/45/13 21/46/13 39/21/13
f  39/21/13 21/46/13 22/47/13
f  39/21/13 25/37/13 29/48/13
f  39/21/13 29/48/13 20/45/13
f  31/49/13 27/50/13 37/17/13
f  37/17/13 27/50/13 25/37/13
f  13/44/13 47/32/13 49/36/13
f  35/20/13 33/51/13 37/17/13
f  37/17/13 33/51/13 31/49/13
f  38/19/13 37/17/13 41/18/13
f  47/32/13 13/44/13 9/33/13
f  48/34/13 7/27/13 44/26/13
f  44/26/13 11/28/13 46/30/13
f  2/31/13 3/22/13 45/29/13
f  11/28/13 2/31/13 46/30/13
f  39/21/13 22/47/13 45/29/13
f  55/6/14 6/22/14 56/21/14
f  57/26/14 12/28/14 10/27/14
f  58/17/14 36/20/14 59/19/14
f  55/6/14 61/18/14 60/39/14
f  62/24/14 61/18/14 63/25/14
f  61/18/14 18/38/14 63/25/14
f  61/18/14 64/40/14 60/39/14
f  61/18/14 62/24/14 64/40/14
f  65/41/14 55/6/14 66/42/14
f  55/6/14 60/39/14 66/42/14
f  55/6/14 65/41/14 67/43/14
f  55/6/14 5/23/14 6/22/14
f  55/6/14 67/43/14 5/23/14
f  16/44/14 68/32/14 8/33/14
f  14/35/14 69/36/14 16/44/14
f  16/44/14 69/36/14 68/32/14
f  14/35/14 61/18/14 59/19/14
f  59/19/14 69/36/14 14/35/14
f  61/18/14 14/35/14 18/38/14
f  58/17/14 59/19/14 61/18/14
f  68/32/14 70/34/14 8/33/14
f  71/29/14 56/21/14 6/22/14
f  70/34/14 57/26/14 10/27/14
f  10/27/14 8/33/14 70/34/14
f  72/30/14 12/28/14 57/26/14
f  1/31/14 72/30/14 71/29/14
f  72/30/14 1/31/14 12/28/14
f  1/31/14 71/29/14 6/22/14
f  24/46/14 56/21/14 23/47/14
f  56/21/14 71/29/14 23/47/14
f  58/17/14 56/21/14 28/37/14
f  30/48/14 56/21/14 19/45/14
f  56/21/14 24/46/14 19/45/14
f  56/21/14 30/48/14 28/37/14
f  34/49/14 58/17/14 26/50/14
f  58/17/14 28/37/14 26/50/14
f  36/20/14 58/17/14 32/51/14
f  58/17/14 34/49/14 32/51/14
f  56/21/15 37/52/15 39/6/15
f  56/21/15 58/17/15 37/52/15
f  58/4/16 41/52/16 37/6/16
f  58/4/16 61/17/16 41/52/16
f  61/21/17 40/53/17 41/6/17
f  61/21/17 55/17/17 40/53/17
f  55/4/18 39/52/18 40/6/18
f  55/4/18 56/17/18 39/52/18
f  57/54/19 70/10/20 48/55/21
f  57/54/19 44/56/19 72/57/22
f  44/56/19 57/54/19 48/55/21
f  46/58/22 71/59/23 72/57/22
f  72/57/22 44/56/19 46/58/22
f  23/60/24 71/59/23 45/61/25
f  46/58/22 45/61/25 71/59/23
f  22/17/26 23/60/24 45/61/25
f  47/62/27 48/55/21 70/10/20
f  49/63/28 47/62/27 68/64/27
f  70/10/20 68/64/27 47/62/27
f  49/63/28 69/65/28 38/2/29
f  69/65/28 49/63/28 68/64/27
f  59/5/29 35/4/30 38/2/29
f  38/2/29 69/65/28 59/5/29
f  59/5/29 36/66/31 35/4/30
f  66/54/19 60/10/32 50/55/33
f  66/54/19 53/56/19 65/57/22
f  53/56/19 66/54/19 50/55/33
f  52/58/22 67/59/23 65/57/22
f  65/57/22 53/56/19 52/58/22
f  5/60/24 67/59/23 54/61/25
f  52/58/22 54/61/25 67/59/23
f  4/17/26 5/60/24 54/61/25
f  51/62/27 50/55/33 60/10/32
f  43/63/28 51/62/27 64/64/27
f  60/10/32 64/64/27 51/62/27
f  43/63/28 62/65/28 42/2/29
f  62/65/28 43/63/28 64/64/27
f  63/5/29 17/4/30 42/2/29
f  42/2/29 62/65/28 63/5/29
f  63/5/29 18/66/31 17/4/30
